<svg xmlns="http://www.w3.org/2000/svg">

  <symbol id="facebook" viewBox="0 0 11.3 24.4">
    <path d="M11.2 12.9H7.1v11.4H2.9V12.9H0V8.8h2.9V5.3C2.9 2.5 4.6 0 8.5 0c1.6 0 2.8.2 2.8.2L11.2 4H8.7c-1.4 0-1.6.7-1.6 1.8v3h4.3l-.2 4.1z"/>
  </symbol>

	<symbol id="stat-swoosh" viewBox="0 0 190 190" fill="none">
		<path d="M19.0046 102.996C17.2972 86.7476 20.8079 71.154 28.1861 57.8829C39.8885 36.8339 61.3199 21.6274 87.0904 18.9191C98.1309 17.7589 108.869 19.0081 118.782 22.2428C124.217 24.0161 129.403 26.3861 134.255 29.2831M171.167 87.0049C172.874 103.253 169.363 118.846 161.985 132.117C150.283 153.167 128.852 168.373 103.081 171.081C77.3106 173.789 53.1862 163.37 37.3637 145.214M152.808 44.7865C152.685 44.6452 152.561 44.5045 152.437 44.3642M134.255 29.2831C137.14 31.0059 139.907 32.9151 142.538 34.996L134.255 29.2831Z" stroke-linecap="round" stroke-linejoin="round"/>
	</symbol>

	<symbol id="security" viewBox="0 0 24 24" fill="none">
		<path d="M3.81641 13.6012V4.53776C5.17019 3.69184 8.70214 2 11.9997 2C15.2973 2 18.8292 3.69189 20.183 4.53781V13.6013C20.183 15.2327 18.1826 19.7644 11.9997 22C5.81677 19.7644 3.81641 15.2326 3.81641 13.6012Z"/>
		<path d="M6.9043 12.7862V6.81455C7.76418 6.29368 10.0076 5.25195 12.1021 5.25195C14.1966 5.25195 16.44 6.29371 17.2998 6.81457V12.7862C17.2998 13.7907 16.0293 16.5811 12.1021 17.9576C8.17486 16.5811 6.9043 13.7907 6.9043 12.7862Z"/>
		<path d="M9.2002 11.711L11.1904 13.6723L15.2537 9.66797" stroke-linecap="round" stroke-linejoin="round"/>
	</symbol>

	<symbol id="twitter" viewBox="0 0 24 20">
    <path d="M21.5 5v.7c0 6.7-5 14.4-14 14.4-2.8 0-5.4-.8-7.6-2.3 2.6.3 5.2-.4 7.3-2.1-2.2 0-4-1.5-4.6-3.5.7.1 1.5.1 2.2-.1-2.1-.5-3.8-2.6-3.8-5V7c.7.4 1.4.6 2.2.6C1.8 6.7 1 5.1 1 3.5c0-.9.2-1.8.7-2.5 2.4 3 6 5 10.1 5.2-.1-.4-.1-.8-.1-1.1 0-2.8 2.2-5.1 4.9-5.1 1.4 0 2.7.6 3.6 1.6 1.1-.2 2.2-.6 3.1-1.2-.4 1.2-1.1 2.2-2.2 2.8 1-.1 1.9-.4 2.8-.8-.6 1-1.4 1.9-2.4 2.6z"/>
  </symbol>

	<symbol id="video" viewBox="0 0 24 20" fill="none">
		<path d="M2 7C2 5.89543 2.89543 5 4 5H13.2858C14.3904 5 15.2858 5.89543 15.2858 7V16.2858C15.2858 17.3904 14.3904 18.2858 13.2858 18.2858H4C2.89543 18.2858 2 17.3904 2 16.2858V7Z"/>
		<path d="M17.1218 15.6194C15.9966 15.0567 15.2858 13.9067 15.2858 12.6486L15.2858 10.8125C15.2858 9.55446 15.9966 8.40437 17.1218 7.84174L20.2266 6.28937C21.3308 5.73727 22.63 6.54022 22.63 7.77477V15.6863C22.63 16.9209 21.3308 17.7239 20.2266 17.1717L17.1218 15.6194Z"/>
  </symbol>

</svg>
