<svg xmlns="http://www.w3.org/2000/svg">

	<symbol id="add" viewBox="0 0 24 24" fill="none">
		<path d="M12 22.56L12 12M12 12L1.44 12M12 12L12 1.44M12 12L22.56 12" stroke-linecap="round" stroke-linejoin="round"/>
	</symbol>

	<symbol id="admin" viewBox="0 0 24 24" fill="none">
		<path d="M8.91868 11.1016C6.40217 10.9071 5.03959 9.04351 4.96282 7.03394L4.95938 5.52434C5.04052 3.40062 6.55767 1.44 9.35517 1.44C12.1527 1.44 13.6767 3.40062 13.7578 5.52434L13.7544 7.03394C13.7353 7.53226 13.6372 8.0216 13.4621 8.47873" stroke-linecap="round" stroke-linejoin="round"/>
		<path d="M10.2384 22.5562H1.44C1.44 18.9754 3.56213 15.5654 7.5989 14.7979" stroke-linecap="round" stroke-linejoin="round"/>
		<path fill-rule="evenodd" clip-rule="evenodd" d="M20.4833 12.3926C20.7754 12.2308 21.1732 12.1912 21.391 12.4362C21.8863 12.9934 22.2676 13.6242 22.5253 14.2953C22.6408 14.596 22.4059 14.9018 22.1117 15.0602C21.6193 15.3251 21.2873 15.8255 21.2873 16.3992C21.2873 16.9731 21.6196 17.4737 22.1124 17.7386C22.4069 17.8969 22.6421 18.2031 22.526 18.5039C22.3977 18.8361 22.2373 19.1623 22.0437 19.4791C21.8502 19.7958 21.6313 20.0902 21.3909 20.3612C21.1733 20.6067 20.775 20.5673 20.4826 20.4054C19.9934 20.1347 19.3684 20.1131 18.8423 20.4001C18.3165 20.6869 18.0238 21.2088 18.0271 21.7441C18.0291 22.064 17.8662 22.4091 17.5328 22.465C16.7888 22.5896 16.0199 22.5931 15.2615 22.4664C14.928 22.4107 14.7654 22.0655 14.7677 21.7456C14.7715 21.2097 14.4787 20.6872 13.9524 20.4001C13.4261 20.113 12.8008 20.1347 12.3115 20.4058C12.0194 20.5676 11.6216 20.6072 11.4038 20.3623C10.9084 19.8051 10.5272 19.1742 10.2694 18.5031C10.154 18.2024 10.3888 17.8965 10.683 17.7382C11.1754 17.4732 11.5074 16.9729 11.5074 16.3992C11.5074 15.8253 11.1751 15.3247 10.6823 15.0598C10.3878 14.9015 10.1526 14.5953 10.2687 14.2945C10.397 13.9623 10.5574 13.6361 10.751 13.3193C10.9445 13.0026 11.1634 12.7082 11.4037 12.4372C11.6214 12.1917 12.0197 12.2311 12.3121 12.393C12.8013 12.6637 13.4263 12.6853 13.9524 12.3984C14.4783 12.1115 14.771 11.5896 14.7677 11.0543C14.7657 10.7344 14.9286 10.3893 15.262 10.3334C16.006 10.2087 16.7749 10.2053 17.5334 10.332C17.8668 10.3877 18.0294 10.7329 18.0271 11.0529C18.0233 11.5887 18.316 12.1113 18.8423 12.3984C19.3686 12.6854 19.994 12.6637 20.4833 12.3926Z"/>
		<path d="M18.0271 16.3992C18.0271 17.3711 17.2393 18.1589 16.2675 18.1589C15.2956 18.1589 14.5078 17.3711 14.5078 16.3992C14.5078 15.4274 15.2956 14.6395 16.2675 14.6395C17.2393 14.6395 18.0271 15.4274 18.0271 16.3992Z"/>
	</symbol>

	<symbol id="add-circle" viewBox="0 0 24 24" fill="none">
		<circle cx="12" cy="12" r="10.56"/>
		<path d="M12 17.76L12 12M12 12L6.23999 12M12 12L12 6.23999M12 12L17.76 12" stroke-linecap="round" stroke-linejoin="round"/>
	</symbol>

	<symbol id="add-user" viewBox="0 0 24 24" fill="none">
		<path d="M8.91868 11.1016C6.40217 10.9071 5.03959 9.04351 4.96282 7.03394L4.95938 5.52434C5.04052 3.40062 6.55767 1.44 9.35517 1.44C12.1527 1.44 13.6767 3.40062 13.7578 5.52434L13.7544 7.03394C13.7353 7.53226 13.6372 8.0216 13.4621 8.47873" stroke-linecap="round" stroke-linejoin="round"/>
		<path d="M10.2384 22.5562H1.44C1.44 18.9754 3.56213 15.5654 7.5989 14.7979" stroke-linecap="round" stroke-linejoin="round"/>
		<path d="M17 22.3816L17 17.1016M17 17.1016L11.72 17.1016M17 17.1016L17 11.8216M17 17.1016L22.28 17.1016" stroke-linecap="round" stroke-linejoin="round"/>
	</symbol>

	<symbol id="arrow-left" viewBox="0 0 24 24" fill="none">
		<path d="M21 12H2.99998M2.99998 12L8.99999 18M2.99998 12L8.99999 6" stroke-linecap="round" stroke-linejoin="round"/>
	</symbol>

	<symbol id="announcement" viewBox="0 0 24 24" fill="none">
		<path d="M16.5967 4.56408L17.6131 2.76361M20.0815 11.3594L21.9401 11.3594M18.3972 8.2231L20.0815 7.17767M14.153 6.24635L17.8965 12.7302C18.2392 13.3238 17.8966 14.0785 17.224 14.2113L7.80534 16.07C7.39342 16.1513 6.97459 15.9666 6.75679 15.6077L6.12282 14.5628C5.89779 14.1919 5.93756 13.7183 6.22128 13.3901L12.5305 6.09234C12.9804 5.57199 13.8091 5.65065 14.153 6.24635Z" stroke-linecap="round" stroke-linejoin="round"/>
		<path d="M3.2914 16.835C2.68248 15.7804 2.87351 14.5301 3.71808 14.0425L5.24732 13.1595L7.45244 16.9789L5.9232 17.8618C5.07863 18.3494 3.90033 17.8897 3.2914 16.835Z" stroke-linecap="round" stroke-linejoin="round"/>
		<path d="M6.277 18.1426L8.34812 16.3908L11.3206 19.9206L9.24943 21.6724L6.277 18.1426Z" stroke-linecap="round" stroke-linejoin="round"/>
	</symbol>

	<symbol id="assignment" viewBox="0 0 24 24" fill="none">
		<path d="M12.2143 1.44H2.67999C2.12771 1.44 1.67999 1.88772 1.67999 2.44V20.6465C1.67999 21.1988 2.12771 21.6465 2.67999 21.6465H15.8349C16.3872 21.6465 16.8349 21.1988 16.8349 20.6465V15.84M12.2143 1.44V6.16088H16.8349M12.2143 1.44L16.8349 6.16088M16.8349 6.16088V10.92M5.00794 6.24H9.24461M5.00794 10.08H12.2143M5.00794 13.92H13.7469M5.00794 17.76H13.7469" stroke-linecap="round" stroke-linejoin="round"/>
		<path d="M18.0748 16.9509L19.3874 18.2243C19.9574 18.7773 20.8546 18.806 21.4588 18.2904V18.2904C22.1364 17.7121 22.1833 16.6811 21.5609 16.0437L20.393 14.8477M18.0748 16.9509L20.393 14.8477M18.0748 16.9509L13.052 12.0781L12.2793 8.91293L15.3702 9.70424L20.393 14.8477" stroke-linecap="round" stroke-linejoin="round"/>
	</symbol>

	<symbol id="bank_transfer" viewBox="0 0 160 160" fill="none">
		<path d="M87.9 73.8046L87.9349 73.8256L87.9706 73.8451C88.6443 74.2139 89.5722 74.5517 90.5995 74.3402C91.7085 74.112 92.4326 73.3551 92.866 72.5728L92.8821 72.5438L92.8973 72.5142L93.5348 71.2677C93.8954 70.6084 94.1706 69.739 93.9936 68.7872C93.8064 67.7807 93.1785 67.0248 92.3846 66.5429C91.3918 65.8692 89.8321 65.0452 87.7484 64.6157V64.219C87.7484 63.3993 87.499 62.448 86.6988 61.741C85.944 61.0741 85.0128 60.907 84.2529 60.907H83.9845C83.1518 60.907 82.1457 61.1111 81.3774 61.9056C80.6216 62.687 80.4507 63.6756 80.4507 64.4439V64.8431C76.2815 66.1148 73.2419 69.4987 73.2419 73.965C73.2419 79.3841 77.737 81.7548 80.9019 83.1782C81.4615 83.4299 81.9811 83.6531 82.4642 83.8607C83.5266 84.3171 84.4127 84.6978 85.1617 85.1393C85.6733 85.441 85.9541 85.6821 86.0965 85.8565C86.2031 85.987 86.2027 86.0383 86.2025 86.0687C86.2025 86.07 86.2025 86.0713 86.2025 86.0726C86.2025 86.4852 86.0582 86.7017 85.8125 86.8795C85.4991 87.1063 84.9453 87.2963 84.2146 87.2963C82.4321 87.2963 80.8829 86.4709 79.8608 85.7715L79.8339 85.7531L79.8065 85.7356C79.1495 85.3168 78.2619 84.9474 77.242 85.0898C76.1808 85.2381 75.4159 85.8758 74.9027 86.5656L74.8957 86.575L74.8888 86.5844L74.0489 87.7415C74.0482 87.7424 74.0475 87.7434 74.0468 87.7443C73.5643 88.4057 73.1878 89.2909 73.2907 90.2964C73.3975 91.3404 73.9849 92.1642 74.7562 92.7135C75.8608 93.5378 77.7905 94.7275 80.4507 95.3348V95.7811C80.4507 96.5614 80.6782 97.512 81.4752 98.2312C82.2337 98.9156 83.1844 99.0931 83.9845 99.0931H84.2529C85.1241 99.0931 86.1009 98.8385 86.8367 98.05C87.5501 97.2856 87.7484 96.3258 87.7484 95.5187V95.2808C92.321 94.0256 95.1489 90.3429 95.1489 85.9601C95.1489 83.2612 94.0754 81.2334 92.5152 79.7224C91.0271 78.2814 89.1247 77.3369 87.4669 76.6153C86.8522 76.3478 86.2892 76.1165 85.7708 75.9035C84.762 75.4891 83.9215 75.1439 83.1953 74.7347C82.6836 74.4463 82.4107 74.2181 82.2765 74.0584C82.1854 73.9499 82.1873 73.9136 82.1882 73.8948C82.1883 73.8931 82.1884 73.8915 82.1884 73.8901C82.1884 73.6728 82.2753 73.4355 82.5983 73.1926C82.9463 72.9309 83.5414 72.7039 84.3296 72.7039C85.7654 72.7039 87.0453 73.2904 87.9 73.8046Z" stroke-linecap="round" stroke-linejoin="round"/>
		<path d="M33.75 49.5H97V27.5L149.75 80.25L97 133V112H33.75M47.75 102H10.75M57.75 91.75H20.75M47.75 79.75H10.75M57.75 69.5H20.75M47.75 59.25H10.75" stroke-linecap="round" stroke-linejoin="round"/>
	</symbol>

	<symbol id="billing" viewBox="0 0 24 24" fill="none">
		<path d="M13.6306 2.48395H4.99358C4.4413 2.48395 3.99358 2.93166 3.99358 3.48395V19.9693C3.99358 20.5216 4.4413 20.9693 4.99358 20.9693H15.3656M13.6306 2.48395V6.8027H17.8576M13.6306 2.48395L17.8576 6.8027M17.8576 6.8027V12.2216" stroke-linecap="round" stroke-linejoin="round"/>
		<path d="M7.35779 17.4138H14.4934M7.35779 13.9009H14.4934M7.35779 10.388H14.4934" stroke-linecap="round" stroke-linejoin="round"/>
		<path d="M15.2853 20.8849C15.5352 21.0708 15.9345 21.3218 16.4696 21.4974C16.5174 21.7233 16.6288 21.97 16.8563 22.1753C17.1708 22.4591 17.5465 22.5161 17.807 22.5161H17.8714C18.1774 22.5161 18.5685 22.4254 18.8717 22.1005C19.0584 21.9005 19.153 21.6738 19.1969 21.4653C20.303 21.0236 21.0064 20.0305 21.0064 18.8442C21.0064 18.0405 20.6802 17.4231 20.2161 16.9736C20.0359 16.7991 19.8377 16.6526 19.6381 16.5281C20.0169 16.405 20.2574 16.1287 20.3934 15.8833L20.4014 15.8688L20.409 15.854L20.5591 15.5605C20.6803 15.3362 20.791 15.0072 20.7204 14.6276C20.6447 14.221 20.3936 13.9262 20.105 13.7471C19.8877 13.6008 19.5827 13.4343 19.1955 13.3114C19.1441 13.0835 19.0285 12.8414 18.8027 12.6419C18.4901 12.3657 18.1217 12.3115 17.8714 12.3115H17.807C17.5301 12.3115 17.1268 12.3794 16.8075 12.7096C16.593 12.9314 16.4994 13.1864 16.4617 13.4062C15.4529 13.8408 14.7087 14.755 14.7087 15.9654C14.7087 17.0573 15.3153 17.7299 15.9412 18.1573C15.6013 18.254 15.362 18.4749 15.2101 18.6791L15.2101 18.6791L15.2032 18.6885L15.0025 18.9649C15.0021 18.9655 15.0018 18.966 15.0014 18.9665C14.8349 19.195 14.6817 19.5328 14.7231 19.9378C14.7664 20.361 15.004 20.6826 15.2853 20.8849ZM17.7728 15.6319C17.7732 15.6319 17.777 15.6348 17.783 15.6406C17.7754 15.6349 17.7724 15.632 17.7728 15.6319ZM17.9192 19.1571C17.9265 19.163 17.9294 19.1659 17.929 19.1659C17.9286 19.166 17.9249 19.163 17.9192 19.1571Z"/>
	</symbol>

	<symbol id="billing_lg" viewBox="0 0 160 160" fill="none">
		<path d="M89.8883 16.2778H26.6414C26.0891 16.2778 25.6414 16.7256 25.6414 17.2778V138.513C25.6414 139.066 26.0891 139.513 26.6414 139.513H108.767M89.8883 16.2778V45.0695H118.068M89.8883 16.2778L118.068 45.0695M118.068 45.0695V81.1956" stroke-linecap="round" stroke-linejoin="round"/>
		<path d="M48.0693 115.81H95.6399M48.0693 92.3909H95.6399M48.0693 68.9715H95.6399" stroke-linecap="round" stroke-linejoin="round"/>
		<path fill-rule="evenodd" clip-rule="evenodd" d="M111.945 143.722V136.717C110.231 136.299 108.663 135.701 107.258 134.908L107.248 134.903L107.239 134.897C105.509 133.896 104.015 132.713 102.783 131.339L102.772 131.327L102.761 131.314C101.564 129.933 100.62 128.455 99.9515 126.879L99.9413 126.855L99.9318 126.831C99.3355 125.318 98.9542 123.813 98.8099 122.323L98.6399 120.566L108.006 118.462C106.392 117.646 104.974 116.633 103.774 115.408C101.404 112.989 100.227 109.977 100.227 106.506C100.227 104.527 100.581 102.665 101.318 100.944C102.028 99.2884 102.985 97.8221 104.195 96.564L104.196 96.5629C105.428 95.2833 106.85 94.2408 108.452 93.4384C109.572 92.8632 110.737 92.4092 111.945 92.0769V84.9762H123.075V92.3208C124.324 92.7126 125.475 93.23 126.514 93.8837C127.931 94.7106 129.161 95.6745 130.178 96.7877C131.176 97.8806 131.975 99.0838 132.562 100.396C133.153 101.628 133.581 102.853 133.824 104.068L134.192 105.91L123.052 108.875C124.512 109.31 125.838 109.858 127.016 110.53C128.655 111.441 130.043 112.524 131.13 113.801C132.247 115.022 133.068 116.41 133.571 117.954C134.098 119.449 134.359 121.01 134.359 122.626C134.359 124.307 134.07 125.93 133.487 127.482C132.902 129.042 132.031 130.466 130.891 131.751C129.775 133.058 128.41 134.15 126.824 135.036C125.666 135.683 124.414 136.187 123.075 136.556V143.722H111.945ZM115.816 107.222L121.194 108.397C121.298 108.42 121.4 108.443 121.502 108.466L121.272 107.083C121.212 106.726 121.102 106.305 120.927 105.815C120.827 105.533 120.635 105.201 120.287 104.825L120.258 104.793L120.23 104.76C120.017 104.509 119.676 104.243 119.121 104.009L119.06 103.984L119.002 103.955C118.639 103.773 117.99 103.608 116.921 103.608C115.493 103.608 114.789 103.964 114.429 104.324L114.412 104.342L114.394 104.358C113.833 104.892 113.713 105.305 113.713 105.638C113.713 106.014 113.818 106.224 114.017 106.416C114.272 106.663 114.801 106.979 115.816 107.222ZM112.991 120.233L118.517 121.537C118.537 121.542 118.558 121.546 118.579 121.551C119.412 121.738 120.811 122.053 120.811 123.122C120.811 124.711 118.681 125.028 117.479 125.028C115.857 125.028 114.115 124.667 112.895 123.523C111.836 122.531 111.455 121.195 111.326 119.784L112.991 120.233Z" stroke-linecap="round" stroke-linejoin="round"/>
	</symbol>

	<symbol id="billing_admin" viewBox="0 0 24 24" fill="none">
		<path d="M9.36 14.64C4.18154 14.64 1.44 18.4897 1.44 22.56H11.94" stroke-linecap="round" stroke-linejoin="round"/>
		<path d="M13.7566 7.03493L13.76 5.52506C13.6789 3.40097 12.1546 1.44 9.35658 1.44C6.55858 1.44 5.04116 3.40097 4.96001 5.52506L4.96344 7.03493C5.04459 9.15902 6.56201 11.12 9.36001 11.12C12.158 11.12 13.6754 9.15902 13.7566 7.03493Z" stroke-linecap="round" stroke-linejoin="round"/>
		<path d="M17.5848 14.9963L17.6022 15.0068L17.6201 15.0165C17.8633 15.1497 18.2448 15.2984 18.6873 15.2073C19.1707 15.1079 19.4728 14.7789 19.6408 14.4756L19.6489 14.4611L19.6564 14.4463L19.8484 14.071C19.9842 13.8207 20.1018 13.4653 20.0267 13.0615C19.9465 12.6306 19.6795 12.3152 19.3641 12.1207C19.078 11.9276 18.6602 11.7025 18.1193 11.5521C18.0848 11.2662 17.9651 10.9464 17.679 10.6936C17.3503 10.4032 16.9577 10.3416 16.6751 10.3416H16.5934C16.2818 10.3416 15.8537 10.418 15.5183 10.7649C15.2458 11.0466 15.1557 11.3823 15.1328 11.6513C13.8635 12.1406 12.93 13.2466 12.93 14.7103C12.93 16.6327 14.5445 17.4464 15.494 17.8734C15.6843 17.959 15.8524 18.0312 16.0033 18.0959C16.2498 18.2018 16.4503 18.2878 16.6263 18.3804C16.2139 18.3693 15.8357 18.1749 15.5577 17.9847L15.5443 17.9755L15.5306 17.9667C15.2883 17.8122 14.9231 17.6513 14.4853 17.7125C14.0267 17.7765 13.7098 18.0514 13.5132 18.3158L13.5131 18.3158L13.5062 18.3252L13.2511 18.6767C13.2507 18.6772 13.2504 18.6777 13.25 18.6782C13.0649 18.9321 12.9029 19.2959 12.9469 19.7253C12.9927 20.1732 13.2443 20.5173 13.5516 20.7375C13.8755 20.9788 14.4104 21.3125 15.1351 21.5247C15.1653 21.8051 15.2777 22.1317 15.5671 22.3929C15.8977 22.6912 16.2982 22.7561 16.5934 22.7561H16.6751C17.0133 22.7561 17.4287 22.6563 17.7479 22.3142C17.9868 22.0583 18.0854 21.7584 18.1176 21.4945C19.5086 21.0013 20.3852 19.7991 20.3852 18.3646C20.3852 17.4252 20.0067 16.7092 19.464 16.1836C18.9573 15.693 18.3226 15.3825 17.8102 15.1595C17.5998 15.0679 17.418 14.9934 17.2571 14.9274C17.0705 14.8508 16.9118 14.7858 16.7688 14.7189C17.0785 14.7364 17.3685 14.8662 17.5848 14.9963ZM16.9353 18.581C16.9349 18.581 16.9317 18.578 16.9271 18.5719C16.9334 18.578 16.9357 18.581 16.9353 18.581ZM16.3695 14.4852C16.3699 14.4852 16.3734 14.4883 16.3785 14.4945C16.3716 14.4884 16.3691 14.4852 16.3695 14.4852Z"/>
	</symbol>

	<symbol id="book" viewBox="0 0 24 24" fill="none">
		<path d="M12 5.97587V20.2878M12 5.97587C8.42813 3.65171 3.84506 3.55997 2 3.80462C2 7.6986 2 15.9881 2 17.9942C8.31193 17.9942 11.2966 19.5233 12 20.2878M12 5.97587C15.5719 3.65171 20.1549 3.55997 22 3.80462V17.9942C15.6881 17.9942 12.7034 19.5233 12 20.2878M9.89342 16.1805C8.60184 15.6982 6.69297 15.2515 4.05254 15.0908M9.89342 13.4588C8.60184 12.9765 6.69297 12.5297 4.05254 12.3691M9.89342 10.6759C8.60184 10.1936 6.69297 9.74686 4.05254 9.58621M9.89342 7.92365C8.60184 7.44135 6.69297 6.99457 4.05254 6.83391M14.1066 16.1805C15.3982 15.6982 17.307 15.2515 19.9475 15.0908M14.1066 13.4588C15.3982 12.9765 17.307 12.5297 19.9475 12.3691M14.1066 10.6759C15.3982 10.1936 17.307 9.74686 19.9475 9.58621M14.1066 7.92365C15.3982 7.44135 17.307 6.99457 19.9475 6.83391" stroke-linecap="round" stroke-linejoin="round"/>
	</symbol>

	<symbol id="bulk-arrow" viewBox="0 0 14 12">
		<path d="M6.09715 4.52271C6.09715 3.17802 7.18724 2.08793 8.53193 2.08793H14V0.000976562H8.53193C6.03464 0.000976562 4.01019 2.02543 4.01019 4.52271V6.15557H0L5.07825 11.999L10.1565 6.15557H6.09715V4.52271Z"/>
	</symbol>

	<symbol id="card" viewBox="0 0 24 24" fill="none">
    <path d="M13.7961 7.87201H18.48M13.7961 11.8909H18.48M13.7961 15.9098H18.48M3.36 4.32001H20.64C21.7004 4.32001 22.56 5.17962 22.56 6.24001V17.76C22.56 18.8204 21.7004 19.68 20.64 19.68H3.36C2.29962 19.68 1.44 18.8204 1.44 17.76V6.24001C1.44 5.17962 2.29962 4.32001 3.36 4.32001Z" stroke-linecap="round" stroke-linejoin="round"/>
    <path d="M10.41 15.96H4.47003C4.47003 14.4336 5.49811 12.99 7.44003 12.99C9.38196 12.99 10.41 14.4336 10.41 15.96Z" stroke-linecap="round" stroke-linejoin="round"/>
    <path d="M9.08868 10.1381L9.08997 9.57188C9.05954 8.77535 8.48793 8.03998 7.43868 8.03998C6.38943 8.03998 5.82039 8.77535 5.78996 9.57188L5.79125 10.1381C5.82168 10.9346 6.39071 11.67 7.43997 11.67C8.48922 11.67 9.05825 10.9346 9.08868 10.1381Z" stroke-linecap="round" stroke-linejoin="round"/>
	</symbol>

	<symbol id="caret" viewBox="0 0 24 24" fill="none">
		<path d="M4 7.63635L12 16.3636L20 7.63635" stroke-linecap="round" stroke-linejoin="round"/>
	</symbol>

	<symbol id="certificate" viewBox="0 0 24 24" fill="none">
		<path d="M5.20313 5.74383H18.9169M5.20313 9.76274H9.887M5.20313 13.7817H9.887M19.2147 17.5518H20.64C21.7004 17.5518 22.56 16.6922 22.56 15.6318V4.11183C22.56 3.05145 21.7004 2.19183 20.64 2.19183H3.36C2.29962 2.19183 1.44 3.05145 1.44 4.11183V15.6318C1.44 16.6922 2.29962 17.5518 3.36 17.5518H13.0137" stroke-linecap="round" stroke-linejoin="round"/>
		<path d="M18.5472 13.6264C18.9163 13.1115 19.1335 12.4804 19.1335 11.7985C19.1335 10.0637 17.7272 8.65741 15.9924 8.65741C14.2576 8.65741 12.8513 10.0637 12.8513 11.7985C12.8513 12.4803 13.0685 13.1113 13.4374 13.6262M18.5472 13.6264C18.3552 13.8942 18.1222 14.1307 17.8572 14.3264C17.3357 14.7118 16.6906 14.9397 15.9924 14.9397C15.2941 14.9397 14.6491 14.7118 14.1275 14.3264C13.8625 14.1306 13.6294 13.8942 13.4374 13.6262M18.5472 13.6264V21.8082L15.9923 19.2533L13.4374 21.8082V13.6262" stroke-linecap="round" stroke-linejoin="round"/>
	</symbol>

	<symbol id="chart" viewBox="0 0 40 24" fill="none">
		<path d="M2.70117 17.9032L12.1229 8.48622L21.4929 14.3688L30.1271 4.12451"/>
		<path d="M2.70117 17.9032L12.1229 8.48622L21.4929 14.3688L30.1271 4.12451" stroke-linecap="round"/>
		<path d="M12.1179 11.245C13.5394 11.245 14.6918 10.0926 14.6918 8.67108C14.6918 7.24955 13.5394 6.09717 12.1179 6.09717C10.6963 6.09717 9.54395 7.24955 9.54395 8.67108C9.54395 10.0926 10.6963 11.245 12.1179 11.245Z" fill="white"/>
		<path d="M21.5508 16.5074C22.9715 16.5074 24.1231 15.3558 24.1231 13.9351C24.1231 12.5145 22.9715 11.3628 21.5508 11.3628C20.1302 11.3628 18.9785 12.5145 18.9785 13.9351C18.9785 15.3558 20.1302 16.5074 21.5508 16.5074Z" fill="white"/>
		<path d="M30.1274 6.69861C31.5489 6.69861 32.7013 5.54623 32.7013 4.12469C32.7013 2.70316 31.5489 1.55078 30.1274 1.55078C28.7058 1.55078 27.5535 2.70316 27.5535 4.12469C27.5535 5.54623 28.7058 6.69861 30.1274 6.69861Z" fill="white"/>
	</symbol>

	<symbol id="check" viewBox="0 0 24 24" fill="none">
		<path d="M3 12.3964L9.08341 18.4798L21 5.5202" stroke-linecap="round"/>
	</symbol>

	<symbol id="class" viewBox="0 0 24 24" fill="none">
		<path d="M5.22755 8.67131H12.2299M5.22755 11.912H12.2299M19.0305 8.47214V6.54896C19.0305 5.6939 18.3373 5.00073 17.4822 5.00073H3.54822C2.69316 5.00073 2 5.6939 2 6.54896V15.8383C2 16.6934 2.69316 17.3865 3.54822 17.3865H13.7407" stroke-linecap="round" stroke-linejoin="round"/>
		<path d="M22 18.9992H13.9535C13.9535 16.9315 15.3462 14.976 17.9768 14.976C20.6074 14.976 22 16.9315 22 18.9992Z" stroke-linecap="round" stroke-linejoin="round"/>
		<path d="M20.2102 11.1126L20.2119 10.3456C20.1707 9.26663 19.3964 8.27048 17.975 8.27048C16.5537 8.27048 15.7828 9.26663 15.7416 10.3456L15.7434 11.1126C15.7846 12.1917 16.5554 13.1878 17.9768 13.1878C19.3981 13.1878 20.1689 12.1917 20.2102 11.1126Z" stroke-linecap="round" stroke-linejoin="round"/>
	</symbol>

	<symbol id="close" viewBox="0 0 24 24" fill="none">
		<path d="M3 21L12 12M3 3L12 12M12 12L21 3M12 12L21 21" stroke-linecap="round" stroke-linejoin="round"/>
	</symbol>

	<symbol id="copy" viewBox="0 0 24 24" fill="none">
		<path d="M7.15624 7.215V3.36C7.15624 2.29962 8.01585 1.44 9.07624 1.44H20.64C21.7004 1.44 22.56 2.29962 22.56 3.36V14.9238C22.56 15.9842 21.7004 16.8438 20.64 16.8438H17.025M3.36 22.56H14.9238C15.9841 22.56 16.8438 21.7004 16.8438 20.64V9.07624C16.8438 8.01585 15.9842 7.15624 14.9238 7.15624H3.36C2.29962 7.15624 1.44 8.01585 1.44 9.07624V20.64C1.44 21.7004 2.29961 22.56 3.36 22.56Z"/>
	</symbol>

  <symbol id="corpgov_lg" viewBox="0 0 160 160" fill="none">
		<path d="M12.5 149.75H18M18 149.75V137.25H26.25M18 149.75H143M26.25 137.25V126.25H134.75V137.25M26.25 137.25H134.75M26.25 54.75V66H134.75V54.75M26.25 54.75H18V46.75L80.5 10L143 46.75V54.75H134.75M26.25 54.75H134.75M148.5 149.75H143M143 149.75V137.25H134.75" stroke-linecap="round" stroke-linejoin="round"/>
		<path d="M79.4114 29.1392V35.3705H82.9722M89.2035 35.3705C89.2035 40.7786 84.8194 45.1626 79.4114 45.1626C74.0033 45.1626 69.6193 40.7786 69.6193 35.3705C69.6193 29.9625 74.0033 25.5784 79.4114 25.5784C84.8194 25.5784 89.2035 29.9625 89.2035 35.3705Z" stroke-linecap="round" stroke-linejoin="round"/>
		<path d="M33.5663 68.4275V77.8345H37.5722M52.2603 68.4275V77.8345H49.1447M37.5722 77.8345V115.3M37.5722 77.8345H49.1447M49.1447 77.8345V115.3M49.1447 115.3H33.5663V126.359M49.1447 115.3H52.2603V126.359" stroke-linecap="round" stroke-linejoin="round"/>
		<path d="M70.6465 68.4275V77.8345H74.6524M89.3405 68.4275V77.8345H86.2249M74.6524 77.8345V115.3M74.6524 77.8345H86.2249M86.2249 77.8345V115.3M86.2249 115.3H70.6465V126.359M86.2249 115.3H89.3405V126.359" stroke-linecap="round" stroke-linejoin="round"/>
		<path d="M105.647 68.4275V77.8345H109.652M124.341 68.4275V77.8345H121.225M109.652 77.8345V115.3M109.652 77.8345H121.225M121.225 77.8345V115.3M121.225 115.3H105.647V126.359M121.225 115.3H124.341V126.359" stroke-linecap="round" stroke-linejoin="round"/>
  </symbol>

  <symbol id="credit_card" viewBox="0 0 160 160" fill="none">
		<path d="M34.4785 54.3661L41.7517 32.7712C44.2857 25.2477 52.4389 21.2029 59.9624 23.7368L140.335 50.8067C147.859 53.3407 151.904 61.4938 149.37 69.0173L132.394 119.421C130.903 123.846 127.469 127.068 123.362 128.455"/>
		<path d="M10.1255 65.0848C10.1255 59.5619 14.6026 55.0848 20.1255 55.0848H113.683C119.206 55.0848 123.683 59.5619 123.683 65.0848V127.019C123.683 132.542 119.206 137.019 113.683 137.019H20.1255C14.6027 137.019 10.1255 132.542 10.1255 127.019V65.0848Z"/>
		<path d="M8.12134 75.2089H123.625M123.625 91.0208H8.12134"/>
		<path d="M26.656 116.895H43.1866M74.0916 116.895H57.561" stroke-linecap="round"/>
  </symbol>

	<symbol id="curriculum" viewBox="0 0 24 24" fill="none">
    <path d="M4.13997 1.44H19.98M4.13997 1.44V14.64M4.13997 1.44H2.15997M19.98 1.44V14.64M19.98 1.44H21.96M19.98 14.64H21.96M19.98 14.64H12.06M4.13997 14.64H2.15997M4.13997 14.64H12.06M12.06 14.64V18.6M12.06 22.56V18.6M12.06 18.6L7.43997 22.56M12.06 18.6L16.68 22.56M7.43997 4.74H10.74M7.43997 8.04H16.68M7.43997 11.34H16.68" stroke-linecap="round" stroke-linejoin="round"/>
	</symbol>

	<symbol id="custom_lesson" viewBox="0 0 24 24" fill="none">
		<path d="M22.2583 12.0731L15.6206 15.4718M8.68115 16.2863V18.8704L7.17257 17.3256L5.664 17.6345V14.7883M8.68115 16.2863V14.5449L5.664 13V14.7883M8.68115 16.2863L10.4933 17.1861C11.0614 17.4681 11.7296 17.464 12.2942 17.1749L14.6149 15.9867M5.664 14.7883L1.9953 12.9668C1.65514 12.7979 1.44 12.4509 1.44 12.0711V10.3269M21.504 12.4164V9.7228M21.504 6.90778V6.90778C21.8253 6.725 21.8119 6.25748 21.4807 6.09337L13.3565 2.06783C13.0726 1.92715 12.7388 1.92935 12.4568 2.07375L1.98425 7.43586C1.65017 7.60691 1.44 7.95064 1.44 8.32597V10.3269M21.504 6.90778L12.3056 12.1408C11.7362 12.4648 11.0442 12.4893 10.4532 12.2064L1.44 7.89241V10.3269M21.504 6.90778V9.7228M21.7097 17.309V14.8373M20.5029 16.0731H22.9166M1.44 10.3269L2.89655 11.0552M21.504 9.7228L17.4641 12.0731" stroke-linecap="round" stroke-linejoin="round"/>
		<path d="M21.4601 20.3613L22.049 20.9505C22.3281 21.2296 22.3281 21.6821 22.0489 21.9612L21.3192 22.6909C21.04 22.97 20.5875 22.97 20.3084 22.6909L19.7197 22.1021L21.4601 20.3613ZM21.4601 20.3613L19.7196 22.102L15.4919 17.8744L17.2324 16.1339M21.4601 20.3613L17.2324 16.1339M17.2324 16.1339L15.4919 17.8745L14.1583 14.8406L17.2324 16.1339Z" stroke-linecap="round" stroke-linejoin="round"/>
	</symbol>

	<symbol id="custom_test" viewBox="0 0 24 24" fill="none">
		<path d="M9.88582 4.15133C5.63164 4.15133 2.18295 7.60002 2.18295 11.8542C2.18295 16.1084 5.63164 19.5571 9.88582 19.5571C14.14 19.5571 17.5887 16.1084 17.5887 11.8542C17.5887 9.9053 16.8649 8.12545 15.6715 6.76877M9.88582 4.15133V1.41766H6.43422H13.3926M9.88582 4.15133C12.1911 4.15133 14.2599 5.16401 15.6715 6.76877M10.236 7.3025V12.2043H5.33413M15.6715 6.76877L16.7746 5.66564" stroke-linecap="round" stroke-linejoin="round"/>
		<path d="M20.3606 20.0434L20.9495 20.6326C21.2285 20.9117 21.2285 21.3642 20.9494 21.6433L20.2196 22.373C19.9405 22.6521 19.488 22.6521 19.2089 22.3729L18.6202 21.7842L20.3606 20.0434ZM20.3606 20.0434L18.62 21.7841L14.3923 17.5565L16.1329 15.816M20.3606 20.0434L16.1329 15.816M16.1329 15.816L14.3923 17.5566L13.0588 14.5226L16.1329 15.816Z" stroke-linecap="round" stroke-linejoin="round"/>
		<path d="M20.6102 16.9911V14.5193M19.4033 15.7552H21.817" stroke-linecap="round" stroke-linejoin="round"/>
	</symbol>

	<symbol id="dashboard" viewBox="0 0 24 24" fill="none">
    <path d="M21.1473 18.96C22.0458 17.4068 22.56 15.6034 22.56 13.68C22.56 7.84787 17.8321 3.12 12 3.12C6.16788 3.12 1.44 7.84787 1.44 13.68C1.44 15.6034 1.95424 17.4068 2.85274 18.96" stroke-linecap="round" stroke-linejoin="round"/>
    <path d="M13.44 12.41C13.0882 12.0114 12.5735 11.76 12 11.76C10.9396 11.76 10.08 12.6196 10.08 13.68C10.08 14.167 10.2613 14.6116 10.56 14.95C10.9118 15.3486 11.4266 15.6 12 15.6C12.5735 15.6 13.0882 15.3486 13.44 14.95C13.7388 14.6116 13.92 14.167 13.92 13.68C13.92 13.1931 13.7388 12.7485 13.44 12.41ZM13.44 12.41L15.89 9.96002" stroke-linecap="round" stroke-linejoin="round"/>
    <path d="M3.36 13.68L1.44 13.68" stroke-linecap="round" stroke-linejoin="round"/>
    <path d="M22.56 13.68L20.64 13.68" stroke-linecap="round" stroke-linejoin="round"/>
    <path d="M4.5175 18L2.85474 18.96" stroke-linecap="round" stroke-linejoin="round"/>
    <path d="M21.1453 8.39998L19.4825 9.35999" stroke-linecap="round" stroke-linejoin="round"/>
    <path d="M7.68003 6.19756L6.72003 4.53479" stroke-linecap="round" stroke-linejoin="round"/>
    <path d="M4.51751 9.35996L2.85474 8.39996" stroke-linecap="round" stroke-linejoin="round"/>
    <path d="M21.1453 18.96L19.4825 18" stroke-linecap="round" stroke-linejoin="round"/>
    <path d="M17.28 4.5348L16.32 6.19757" stroke-linecap="round" stroke-linejoin="round"/>
    <path d="M12 3.11998L12 5.03998" stroke-linecap="round" stroke-linejoin="round"/>
    <path d="M13.92 20.88L10.08 20.88" stroke-linecap="round" stroke-linejoin="round"/>
	</symbol>

	<symbol id="diamond" viewBox="0 0 24 24" fill="none">
		<path d="M1 8.59576L12.0395 20.4475M1 8.59576L4.72153 3.55249M1 8.59576H8.29413M23 8.59576L12.0395 20.4475M23 8.59576L19.3098 3.55249H4.72153M23 8.59576H15.8235M12.0395 20.4475L15.8235 8.59576M12.0395 20.4475L8.29413 8.59576M4.72153 3.55249L8.29413 8.59576M15.8235 8.59576L19.3336 3.55249M15.8235 8.59576L12.0157 3.55249M15.8235 8.59576H8.29413M8.29413 8.59576L12.0395 3.55249" stroke-linecap="round" stroke-linejoin="round"/>
	</symbol>

 <symbol id="digital_literacy_lessons-lg" viewBox="0 0 160 160" fill="none">
		<path d="M16.6883 125.013V41.3506C16.6883 39.1415 18.4792 37.3506 20.6883 37.3506H139.312C141.521 37.3506 143.312 39.1415 143.312 41.3506V125.013M143.312 125.013H155L151.933 135.748C151.442 137.465 149.873 138.649 148.087 138.649H11.9133C10.1274 138.649 8.55784 137.465 8.06721 135.748L5 125.013H26.4286M143.312 125.013H133.571M26.4286 125.013V50.039C26.4286 49.4867 26.8763 49.039 27.4286 49.039H132.571C133.124 49.039 133.571 49.4867 133.571 50.039V125.013M26.4286 125.013H133.571M65.3896 130.857H92.6623M116.039 130.857H116.078M125.779 130.857H125.74M133.532 130.857H133.571M79.026 43.1948H79.0649" stroke-linecap="round" stroke-linejoin="round"/>
		<path fill-rule="evenodd" clip-rule="evenodd" d="M49.7236 71.3605C49.7963 70.8482 50.2349 70.4675 50.7523 70.4675H56.583C57.0934 70.4675 57.5283 70.8384 57.6088 71.3424L57.8177 72.6485C57.9001 73.1639 58.2744 73.5804 58.7666 73.7539C59.2432 73.9218 59.7089 74.1128 60.1625 74.3254C60.6394 74.549 61.204 74.5116 61.6251 74.1952L62.6545 73.4216C63.0681 73.1108 63.6474 73.1516 64.013 73.5176L68.1362 77.6405C68.497 78.0014 68.5423 78.5711 68.243 78.9845L67.5103 79.9961C67.202 80.4218 67.1739 80.9855 67.4043 81.4578C67.6346 81.9301 67.8413 82.4161 68.0227 82.9142C68.2025 83.4082 68.6276 83.7796 69.1481 83.8534L70.3405 84.0226C70.8528 84.0952 71.2336 84.5337 71.2336 85.0512V90.8819C71.2336 91.3924 70.863 91.8273 70.3587 91.9078L69.2361 92.0873C68.7155 92.1706 68.2962 92.5514 68.126 93.0504C67.9434 93.5858 67.7318 94.1078 67.4931 94.6145C67.2683 95.0919 67.3053 95.6575 67.6223 96.0793L68.2792 96.9535C68.59 97.3671 68.5491 97.9464 68.1835 98.3123L64.0603 102.435C63.6995 102.796 63.1297 102.842 62.7164 102.542L61.8627 101.924C61.4363 101.615 60.8714 101.587 60.3987 101.819C59.8735 102.077 59.3314 102.305 58.7744 102.501C58.2738 102.678 57.8959 103.106 57.8214 103.632L57.6784 104.639C57.6057 105.152 57.1671 105.532 56.6497 105.532H50.819C50.3086 105.532 49.8737 105.162 49.7932 104.658L49.6281 103.625C49.5454 103.108 49.1693 102.691 48.6752 102.518C48.1174 102.323 47.5744 102.097 47.0482 101.841C46.5679 101.608 45.9943 101.641 45.5674 101.962L44.7475 102.578C44.3339 102.889 43.7546 102.848 43.389 102.482L39.2658 98.3595C38.905 97.9986 38.8597 97.4289 39.159 97.0155L39.817 96.1071C40.1221 95.6858 40.153 95.1287 39.9298 94.6587C39.6894 94.1526 39.4761 93.6311 39.2918 93.0962C39.1176 92.5907 38.6877 92.208 38.1583 92.1329L37.0619 91.9774C36.5495 91.9048 36.1687 91.4662 36.1687 90.9488V85.118C36.1687 84.6076 36.5394 84.1727 37.0436 84.0922L38.261 83.8975C38.7727 83.8156 39.1873 83.446 39.3631 82.9586C39.5431 82.4597 39.7484 81.9728 39.9774 81.4997C40.2096 81.0198 40.1754 80.4473 39.8551 80.0211L39.1228 79.0467C38.812 78.6331 38.8529 78.0538 39.2185 77.6879L43.3417 73.565C43.7025 73.2041 44.2723 73.1587 44.6856 73.4582L45.7528 74.2311C46.1732 74.5355 46.7289 74.5669 47.1982 74.3451C47.6512 74.131 48.1164 73.9386 48.5925 73.7692C49.0914 73.5916 49.4677 73.1645 49.5421 72.6402L49.7236 71.3605Z" stroke-linecap="round" stroke-linejoin="round"/>
		<ellipse cx="53.7014" cy="87.9999" rx="7.9693" ry="7.9693" stroke-linecap="round" stroke-linejoin="round"/>
		<ellipse cx="104.351" cy="88" rx="17.5325" ry="17.5325" stroke-linecap="round" stroke-linejoin="round"/>
		<path d="M86.8181 88H121.883M110.195 88C110.195 97.6829 107.578 105.532 104.351 105.532C101.123 105.532 98.5064 97.6829 98.5064 88C98.5064 78.3171 101.123 70.4675 104.351 70.4675C107.578 70.4675 110.195 78.3171 110.195 88Z" stroke-linecap="round" stroke-linejoin="round"/>
		<path d="M90.7141 77.0651C93.9283 78.3891 98.8428 79.2356 104.35 79.2356C109.858 79.2356 114.773 78.3891 117.987 77.0651M91.1911 98.7504C94.4039 97.5349 99.1085 96.7681 104.35 96.7681C109.858 96.7681 114.773 97.6146 117.987 98.9387" stroke-linecap="round" stroke-linejoin="round"/>
  </symbol>

	<symbol id="download" viewBox="0 0 24 24" fill="none">
		<path d="M1.44 14.5797V22.2597H22.56V14.5797" stroke-linecap="round" stroke-linejoin="round"/>
		<path d="M12 1.50031L12 15.0768M12 15.0768L16.5255 10.5513M12 15.0768L7.47452 10.5513" stroke-linecap="round" stroke-linejoin="round"/>
	</symbol>

	<symbol id="district" viewBox="0 0 24 24" fill="none">
		<path d="M12.0625 7.125L7.8125 10.3125V12.375H3.6875V19.1875M12.0625 7.125L16.3125 10.3125V12.375H20.4375V19.1875M12.0625 7.125V4.625M3.6875 19.1875H2.5V22.375H12.0625H21.625V19.1875H20.4375M3.6875 19.1875H7.0625M10.2812 19.1875H12.0625H13.7812M10.2812 19.1875V15.75M10.2812 19.1875H7.0625M10.2812 15.75H12.0625H13.7812M10.2812 15.75H7.0625V19.1875M11.4375 11.125H12.0625H12.6875M20.4375 19.1875H17.0625M13.7812 19.1875V15.75M13.7812 19.1875H17.0625M13.7812 15.75H17.0625V19.1875M12.0625 4.625V1.75H16.3125V4.625H12.0625Z" stroke-linecap="round" stroke-linejoin="round"/>
	</symbol>

  <symbol id="district_lg" viewBox="0 0 160 160" fill="none">
		<path d="M79.9999 59.096V67.38H84.7337M93.0177 67.38C93.0177 74.5696 87.1895 80.3978 79.9999 80.3978C72.8104 80.3978 66.9822 74.5696 66.9822 67.38C66.9822 60.1905 72.8104 54.3623 79.9999 54.3623C87.1895 54.3623 93.0177 60.1905 93.0177 67.38Z" stroke-linecap="round" stroke-linejoin="round"/>
		<path d="M26.9999 80.5714L35.802 68.6209H54.1554M26.9999 80.5714H54.1554M26.9999 80.5714H8.64659M26.9999 80.5714L27 67.6209M26.9999 80.5714V116.625M54.1553 59.7812L79.9999 35.9204M54.1553 59.7812L54.1554 68.6209M54.1553 59.7812L41.5435 48.118M54.1554 140.625H26.9999V116.625M54.1554 140.625H69.1377M54.1554 140.625V80.5714M69.1377 140.625V107.284H90.8621V140.625M69.1377 140.625H90.8621M79.9999 35.9204V27.5852M79.9999 35.9204L105.844 59.8214M34.1165 97.2418H46.8515M34.1165 110.498H46.8515M34.1165 123.754H46.8515M133.016 80.5781L133 140.625H105.844M133.016 80.5781L124.198 68.6209H105.844M133.016 80.5781L105.844 80.5714M133.016 80.5781H151.369M133.016 80.5781V67.6277M105.844 59.8214V68.6209M105.844 59.8214L118.074 48.1307M105.844 140.625H90.8621M105.844 140.625V80.5714M125.883 97.2418H113.148M125.883 110.498H113.148M125.883 123.754H113.148M79.9999 27.5852V19.25H92.9222V27.5852H79.9999ZM105.844 68.6209V80.5714M54.1554 80.5714V68.6209M69.1377 99.0342H90.8621M69.1377 90.7842H90.8621M151.369 80.5781V116.632H133.016M151.369 80.5781L142.64 67.6277H133.016M133.016 67.6277V61.7944L118.074 48.1307M118.074 48.1307V44.1908M118.074 44.1908V38.2509H127.732V44.1908H118.074ZM8.64659 80.5714V116.625H16.9999H26.9999M8.64659 80.5714L17.3754 67.6209H27M27 67.6209V61.7876L41.5435 48.118M41.5435 48.118V44.1781M41.5435 44.1781V38.2382H51.2019V44.1781H41.5435Z" stroke-linecap="round" stroke-linejoin="round"/>
  </symbol>

	<symbol id="document" viewBox="0 0 24 24" fill="none">
		<path d="M14.705 2.75739H6.06799C5.51571 2.75739 5.06799 3.2051 5.06799 3.75739V20.2427C5.06799 20.795 5.51571 21.2427 6.06799 21.2427H17.932C18.4843 21.2427 18.932 20.795 18.932 20.2427V7.07613M14.705 2.75739V7.07613H18.932M14.705 2.75739L18.932 7.07613" stroke-linecap="round" stroke-linejoin="round"/>
		<path d="M8.4322 17.6873H15.5678M8.4322 14.1743H15.5678M8.4322 10.6614H15.5678" stroke-linecap="round" stroke-linejoin="round"/>
	</symbol>

	<symbol id="edit" viewBox="0 0 24 24" fill="none">
		<path d="M15.8875 3.52119L17.4236 1.98565C18.1514 1.25803 19.3313 1.25813 20.059 1.98587L21.9617 3.88868C22.6894 4.61648 22.6894 5.79643 21.9616 6.52417L20.4264 8.05914L15.8875 3.52119ZM15.8875 3.52119L20.4261 8.05945L9.40306 19.0828L4.8648 14.5445M15.8875 3.52119L4.8648 14.5445M4.8648 14.5445L9.40338 19.0828L1.49261 22.56L4.8648 14.5445Z" stroke-linecap="round" stroke-linejoin="round"/>
	</symbol>

	<symbol id="edit-password" viewBox="0 0 24 24" fill="none">
		<path d="M14.3281 11.3906V10.2656C14.3281 9.16106 13.4327 8.26562 12.3281 8.26562H11.5234M14.3281 11.3906L8.92188 16.7344L8.31806 18.1406M14.3281 11.3906L16.9062 8.8125M5.91406 8.26562H5.10937C4.00481 8.26562 3.10938 9.16106 3.10938 10.2656V16.1406C3.10938 17.2452 4.00481 18.1406 5.10938 18.1406H8.31806M5.91406 8.26562H8.71875H11.5234M5.91406 8.26562H11.5234M5.91406 8.26562V5.73437C5.91406 4.62981 6.80949 3.73438 7.91406 3.73438H9.52344C10.628 3.73438 11.5234 4.62981 11.5234 5.73437V8.26562M8.71875 11.7031V13.7344M8.31806 18.1406L7.46343 20.131C7.11715 20.9375 7.90353 21.767 8.7273 21.4642L12.3281 20.1406L20.3048 12.2111M16.9062 8.8125L18.0702 7.64859C18.8512 6.86754 20.1175 6.86754 20.8986 7.64859L21.4722 8.22221C22.2549 9.0049 22.253 10.2745 21.468 11.0548L20.3048 12.2111M16.9062 8.8125L20.3048 12.2111" stroke-linecap="round" stroke-linejoin="round"/>
	</symbol>

	<symbol id="error" viewBox="0 0 24 24" fill="none">
		<path d="M12.1406 8.625V13.5469M12.1406 17.625V17.4844M4.20577 21H19.7942C21.5263 21 22.6088 19.125 21.7428 17.625L13.9486 4.125C13.0825 2.625 10.9175 2.625 10.0514 4.125L2.25722 17.625C1.39119 19.125 2.47372 21 4.20577 21Z" stroke-linecap="round" stroke-linejoin="round"/>
	</symbol>

  <symbol id="warning" viewBox="0 0 24 24" fill="none">
    <path d="M9.72801 6.53906V10.2715M9.72801 13.3641V13.2574M3.71075 15.9234H15.532C16.8455 15.9234 17.6664 14.5016 17.0097 13.3641L11.099 3.12656C10.4423 1.98906 8.80045 1.98906 8.14372 3.12656L2.23309 13.3641C1.57636 14.5016 2.39728 15.9234 3.71075 15.9234Z" stroke="#F1BC41" stroke-width="1.51667" stroke-linecap="round" stroke-linejoin="round"/>
  </symbol>

  <symbol id="expiry" viewBox="0 0 24 24" fill="none">
		<path d="M12.48 5.76V12.48H5.76M22.56 12C22.56 17.8321 17.8321 22.56 12 22.56C6.16788 22.56 1.44 17.8321 1.44 12C1.44 6.16788 6.16788 1.44 12 1.44C17.8321 1.44 22.56 6.16788 22.56 12Z" stroke-linecap="round" stroke-linejoin="round"/>
	</symbol>

	<symbol id="export" viewBox="0 0 24 24" fill="none">
		<path d="M11.3108 1.44H2.4V22.56H23.52V14.88" stroke-linecap="round" stroke-linejoin="round"/>
		<path d="M13.92 10.9889L23.52 1.38885M23.52 1.38885H17.12M23.52 1.38885V7.78885" stroke-linecap="round" stroke-linejoin="round"/>
	</symbol>

  <symbol id="external_link" viewBox="0 0 26 25" >
    <title>External</title>
    <!-- Contents of icons/external_link.svg -->
    <path fill-rule="evenodd" clip-rule="evenodd" d="M2.31348 1.81962C2.31348 1.28943 2.74328 0.859619 3.27348 0.859619H12.1842C12.7144 0.859619 13.1442 1.28943 13.1442 1.81962C13.1442 2.34981 12.7144 2.77962 12.1842 2.77962H4.23348V21.9796H23.4335V15.2596C23.4335 14.7294 23.8633 14.2996 24.3935 14.2996C24.9237 14.2996 25.3535 14.7294 25.3535 15.2596V22.9396C25.3535 23.4698 24.9237 23.8996 24.3935 23.8996H3.27348C2.74328 23.8996 2.31348 23.4698 2.31348 22.9396V1.81962Z"/>
    <path fill-rule="evenodd" clip-rule="evenodd" d="M17.0335 1.76847C17.0335 1.23828 17.4633 0.808472 17.9935 0.808472H24.3935C24.9237 0.808472 25.3535 1.23828 25.3535 1.76847V8.16847C25.3535 8.69866 24.9237 9.12847 24.3935 9.12847C23.8633 9.12847 23.4335 8.69866 23.4335 8.16847V4.08612L15.4723 12.0473C15.0974 12.4222 14.4896 12.4222 14.1147 12.0473C13.7398 11.6724 13.7398 11.0646 14.1147 10.6896L22.0759 2.72847H17.9935C17.4633 2.72847 17.0335 2.29867 17.0335 1.76847Z"/>
  </symbol>

	<symbol id="filter" viewBox="0 0 24 24" fill="none">
		<path d="M14.4948 21.0701L9.53264 18.717V11.6574L2.67775 2.85858H21.452L14.4948 11.6574V21.0701Z" stroke-linecap="round" stroke-linejoin="round"/>
	</symbol>

	<symbol id="grab" viewBox="0 0 12 24" fill="none">
		<path d="M2 4C2 3.44772 2.44771 3 3 3V3C3.55228 3 4 3.44772 4 4V4C4 4.55228 3.55228 5 3 5V5C2.44771 5 2 4.55228 2 4V4Z" stroke-linecap="round" stroke-linejoin="round"/>
		<path d="M8 4C8 3.44772 8.44771 3 9 3V3C9.55228 3 10 3.44772 10 4V4C10 4.55228 9.55228 5 9 5V5C8.44771 5 8 4.55228 8 4V4Z" stroke-linecap="round" stroke-linejoin="round"/>
		<path d="M8 12C8 11.4477 8.44771 11 9 11V11C9.55228 11 10 11.4477 10 12V12C10 12.5523 9.55228 13 9 13V13C8.44771 13 8 12.5523 8 12V12Z" stroke-linecap="round" stroke-linejoin="round"/>
		<path d="M2 12C2 11.4477 2.44771 11 3 11V11C3.55228 11 4 11.4477 4 12V12C4 12.5523 3.55228 13 3 13V13C2.44771 13 2 12.5523 2 12V12Z" stroke-linecap="round" stroke-linejoin="round"/>
		<path d="M8 20C8 19.4477 8.44771 19 9 19V19C9.55228 19 10 19.4477 10 20V20C10 20.5523 9.55228 21 9 21V21C8.44771 21 8 20.5523 8 20V20Z" stroke-linecap="round" stroke-linejoin="round"/>
		<path d="M2 20C2 19.4477 2.44771 19 3 19V19C3.55228 19 4 19.4477 4 20V20C4 20.5523 3.55228 21 3 21V21C2.44771 21 2 20.5523 2 20V20Z" stroke-linecap="round" stroke-linejoin="round"/>
	</symbol>

	<symbol id="home" viewBox="0 0 24 24" fill="none">
    <path d="M19.3333 22.56V11.9031H22.56L19.3333 8.70606L16.0333 5.43633L12 1.44L1.44 11.9031H4.66667V22.56H9.36V16.1659H14.64V22.56H19.3333Z" stroke-linejoin="round"/>
	</symbol>

 <symbol id="home_school_lg" viewBox="0 0 160 160" fill="none">
		<path d="M21.875 71.4773L77.4085 37.8206C79.0013 36.8553 80.9987 36.8553 82.5915 37.8206L138.125 71.4773M21.875 71.4773V71.4773C19.7089 72.79 16.912 72.3504 15.2532 70.4363L14.7321 69.8351C12.2521 66.9736 12.9277 62.5713 16.1517 60.5851L77.3774 22.8657C78.9855 21.875 81.0145 21.875 82.6226 22.8657L107.5 38.192M21.875 71.4773V138.75H14.375H58.75M33.125 95.625H52.5M58.75 138.75V129.375H64.375M58.75 138.75H101.25M64.375 129.375V81.875H95.625V129.375M64.375 129.375H95.625M138.125 71.4773V71.4773C140.291 72.79 143.088 72.3504 144.747 70.4363L145.268 69.8351C147.748 66.9736 147.072 62.5713 143.848 60.5851L118.75 45.1228M138.125 71.4773V138.75M138.125 138.75H145.625M138.125 138.75H101.25M126.875 95.625H107.5M126.875 95.625V78.125H107.5V95.625M126.875 95.625V110.625H107.5V95.625M101.25 138.75V129.375H95.625M118.75 45.1228V28.125M118.75 45.1228L107.5 38.192M107.5 38.192V28.125M33.125 78.125V110.625H52.5V78.125H33.125Z" stroke-linecap="round" stroke-linejoin="round"/>
		<rect x="103.75" y="21.875" width="18.75" height="6.25" stroke-linecap="round" stroke-linejoin="round"/>
		<circle cx="70.625" cy="105" r="1.875" stroke-linecap="round" stroke-linejoin="round"/>
  </symbol>

	<symbol id="info" viewBox="0 0 24 24" fill="none">
		<path d="M12 22.6C17.8542 22.6 22.6 17.8542 22.6 12C22.6 6.14581 17.8542 1.40002 12 1.40002C6.14578 1.40002 1.39999 6.14581 1.39999 12C1.39999 17.8542 6.14578 22.6 12 22.6Z" stroke-linecap="round" stroke-linejoin="round"/>
		<path d="M11.999 16.5387V11.4613" stroke-linecap="round" stroke-linejoin="round"/>
		<path d="M11.999 7.46124H12.0104" stroke-linecap="round" stroke-linejoin="round"/>
	</symbol>

	<symbol id="invite" viewBox="0 0 24 24" fill="none">
		<path d="M22 9.49617L22 19.9999L2 19.9999L2 9.49617M22 9.49617L12 16.4987L2 9.49617M22 9.49617L17.6257 8.25179M2 9.49617L6.37428 8.25179" stroke-linecap="round" stroke-linejoin="round"/>
		<path d="M6.54547 12.5866V4H17.4546V12.5866M14.2727 8.89194H9.72729M12 6.68065L12 11.0572" stroke-linecap="round" stroke-linejoin="round"/>
	</symbol>

	<symbol id="join" viewBox="0 0 24 24" fill="none">
		<path d="M10.3509 13.649C11.8505 15.1486 14.2819 15.1486 15.7815 13.649L18.4968 10.9337C19.9964 9.43409 19.9964 7.00274 18.4968 5.50313C16.9971 4.00351 14.5658 4.00351 13.0662 5.50313" stroke-linecap="round" stroke-linejoin="round"/>
		<path d="M10.9338 18.4968C9.43415 19.9964 7.0028 19.9964 5.50319 18.4968C4.00358 16.9972 4.00358 14.5658 5.50319 13.0662L8.21848 10.3509C9.71809 8.85132 12.1494 8.85132 13.6491 10.3509" stroke-linecap="round" stroke-linejoin="round"/>
	</symbol>

	<symbol id="knowledge-base" viewBox="0 0 24 24" fill="none">
		<path d="M12.841 1.92944H3.82019C3.26791 1.92944 2.82019 2.37716 2.82019 2.92944V19.3132C2.82019 19.8655 3.26791 20.3132 3.82019 20.3132H7.70095M12.841 1.92944L16.608 5.78776M12.841 1.92944V5.78776H16.608M16.608 5.78776V7.17944M5.69453 9.19735H11.426M5.69453 12.6744H9.68094M5.69453 16.2115H10.4609M16.608 19.0638V19.3132C16.608 19.8655 16.1603 20.3132 15.608 20.3132H12.3809M5.69453 5.83735H9.68094" stroke-linecap="round" stroke-linejoin="round"/>
		<path d="M10.9926 16.7587L6.54669 21.7003C6.25726 22.0666 6.3196 22.5982 6.68594 22.8877L7.95271 23.8885C8.31904 24.1779 8.85064 24.1156 9.14007 23.7492L13.7059 18.3877"/>
		<path d="M21.0876 14.1576C20.5333 17.1809 17.6331 19.1825 14.6098 18.6282C11.5865 18.074 9.58495 15.1738 10.1392 12.1505C10.6935 9.12716 13.5936 7.1256 16.6169 7.67985C19.6402 8.2341 21.6418 11.1343 21.0876 14.1576Z"/>
		<path d="M14.4649 10.5052C15.2997 9.90961 16.8474 10.2285 16.8474 11.3447C16.8474 12.7142 15.3278 12.6907 15.3278 14.1071M15.3094 16.0187V16.0979H15.3646V16.0187H15.3094Z" stroke-linecap="round" stroke-linejoin="round"/>
	</symbol>

	<symbol id="lesson" viewBox="0 0 24 24" fill="none">
		<path d="M4.30768 3.70616V20.1043C4.30768 21.1513 5.15804 22 6.20701 22H19.6923V5.41232H18.7426M4.30768 3.70616C4.30768 4.64845 5.073 5.41232 6.01708 5.41232H10.4615M4.30768 3.70616C4.30768 2.76387 5.073 2 6.01708 2H18.7426M19.6923 2H18.7426M18.7426 2V5.41232M18.7426 5.41232H16.6154M16.6154 5.41232H10.4615M16.6154 5.41232V15.0769L13.4757 12.5207L10.4615 15.0769V5.41232" stroke-linecap="round" stroke-linejoin="round"/>
	</symbol>

  <symbol id="live" viewBox="0 0 24 24" fill="none">
    <path d="M14.5,11.9c0,1.4-1.1,2.5-2.5,2.5s-2.5-1.1-2.5-2.5s1.1-2.5,2.5-2.5S14.5,10.6,14.5,11.9z"/>
    <path d="M16.8,7.2c2.7,2.7,2.8,7,0.2,9.5"/>
    <path d="M19.8,4.8c4,4,4.1,10.3,0.2,14.2"/>
    <path d="M7.2,16.7C4.5,14,4.4,9.7,7,7.2"/>
    <path d="M4.2,19c-4-4-4.1-10.3-0.2-14.2"/>
  </symbol>

	<symbol id="loading-circle" viewBox="0 0 24 24" fill="none">
		<circle cx="12" cy="12" r="7.5"/>
	</symbol>

	<symbol id="logout" viewBox="0 0 24 24" fill="none">
		<path d="M12 1.44H2.39999V22.56H12M7.19999 12H21.6M21.6 12L16.8 7.2M21.6 12L16.8 16.8" stroke-linecap="round" stroke-linejoin="round"/>
	</symbol>

	<symbol id="logo-typing" viewBox="0 0 129 28">
		<path fill-rule="evenodd" clip-rule="evenodd" d="M127.988 21.5571H127.507C127.181 21.5571 126.995 21.3886 126.995 21.0508V16.9089C126.995 15.8194 126.778 14.9602 125.615 14.9602C124.156 14.9602 123.287 16.4484 123.287 17.9366V21.0508C123.287 21.3886 123.117 21.5571 122.791 21.5571H122.294C121.969 21.5571 121.798 21.3886 121.798 21.0508V16.9089C121.798 15.8961 121.643 14.9602 120.433 14.9602C118.942 14.9602 118.074 16.4943 118.074 17.9366V21.0508C118.074 21.3886 117.904 21.5571 117.562 21.5571H117.082C116.756 21.5571 116.569 21.3886 116.569 21.0508V14.3011C116.569 13.9633 116.756 13.7947 117.082 13.7947H117.516C117.857 13.7947 118.028 13.9633 118.028 14.3011V14.991C118.028 15.2213 117.981 15.4357 117.981 15.4357H118.012C118.4 14.5305 119.501 13.6104 120.743 13.6104C122.061 13.6104 122.822 14.2085 123.101 15.3748H123.132C123.551 14.4696 124.637 13.6104 125.909 13.6104C127.693 13.6104 128.5 14.6073 128.5 16.5869V21.0508C128.5 21.3886 128.329 21.5571 127.988 21.5571ZM110.677 21.7415C108.335 21.7415 106.457 20.023 106.457 17.6605C106.457 15.313 108.335 13.6104 110.677 13.6104C113.02 13.6104 114.913 15.313 114.913 17.6605C114.913 20.023 113.02 21.7415 110.677 21.7415ZM110.677 14.8985C109.203 14.8985 107.978 16.0496 107.978 17.6605C107.978 19.2864 109.203 20.4526 110.677 20.4526C112.167 20.4526 113.377 19.2864 113.377 17.6605C113.377 16.0496 112.167 14.8985 110.677 14.8985ZM102.504 21.7415C100.037 21.7415 98.3144 20.008 98.3144 17.6755C98.3144 15.3748 100.052 13.6104 102.504 13.6104C103.823 13.6104 104.676 14.1168 105.094 14.4388C105.359 14.6073 105.374 14.8684 105.188 15.1295L105.032 15.3589C104.847 15.6351 104.629 15.6509 104.335 15.4816C104.009 15.2513 103.403 14.8985 102.581 14.8985C100.999 14.8985 99.8504 16.0647 99.8504 17.6605C99.8504 19.2405 100.999 20.4526 102.612 20.4526C103.558 20.4526 104.241 20.023 104.614 19.7469C104.893 19.5633 105.126 19.5934 105.312 19.8853L105.436 20.1148C105.591 20.3759 105.545 20.622 105.296 20.7905C104.861 21.1433 103.915 21.7415 102.504 21.7415ZM96.268 21.5571H95.6789C95.3375 21.5571 95.1668 21.3886 95.1668 21.0508V20.4526C95.1668 20.1148 95.3375 19.9463 95.6789 19.9463H96.268C96.6102 19.9463 96.78 20.1148 96.78 20.4526V21.0508C96.78 21.3886 96.6102 21.5571 96.268 21.5571ZM82.0729 27.8424C80.257 27.8424 78.3805 27.4832 77.4426 27.0939C76.4137 26.6754 76.1413 26.0171 76.5343 24.9696L76.8674 24.0716C77.2613 23.0541 77.8668 22.7542 78.986 23.1134C79.7426 23.3532 80.5606 23.5328 81.7709 23.5328C83.7377 23.5328 85.4329 22.8444 85.4329 20.5697V19.792C85.4329 19.6116 85.4633 19.2231 85.4633 19.2231H85.4026C84.555 20.4495 83.4349 21.1085 81.5887 21.1085C76.8075 21.1085 74.4764 17.3076 74.4764 13.3564C74.4764 9.43605 76.746 5.78469 81.6199 5.78469C84.9488 5.78469 85.8875 7.78957 85.8875 7.78957H85.9474C85.9474 7.78957 85.917 7.6701 85.917 7.4905V7.43037C85.917 6.71197 86.4922 6.14389 87.5819 6.14389H89.0039C90.0935 6.14389 90.6687 6.71197 90.6687 7.78957V20.1504C90.6687 25.7774 86.0385 27.8424 82.0729 27.8424ZM82.5274 10.0943C80.6812 10.0943 79.7426 11.4109 79.7426 13.1768C79.7426 15.0923 80.6509 16.7981 82.7391 16.7981C84.1012 16.7981 85.5535 16.1106 85.5535 13.4165C85.5535 10.6933 84.1012 10.0943 82.5274 10.0943ZM70.7225 21.5571H68.8156C67.7259 21.5571 67.1507 20.9891 67.1507 19.9115V12.5185C67.1507 11.0825 66.5755 10.4836 65.4251 10.4836C63.0948 10.4836 62.0355 12.3991 62.0355 14.5836V19.9115C62.0355 20.9891 61.4604 21.5571 60.3715 21.5571H58.4646C57.3749 21.5571 56.7997 20.9891 56.7997 19.9115V7.78957C56.7997 6.71197 57.3749 6.14389 58.4646 6.14389H60.159C61.2487 6.14389 61.7935 6.71197 61.7935 7.78957V8.05937C61.7935 8.20891 61.7631 8.44785 61.7631 8.44785H61.8238C62.55 7.25156 64.0335 5.78469 66.7872 5.78469C69.9356 5.78469 72.3873 7.2207 72.3873 11.5612V19.9115C72.3873 20.9891 71.8121 21.5571 70.7225 21.5571ZM52.0473 21.5571H50.1403C49.0507 21.5571 48.4755 20.9891 48.4755 19.9115V7.78957C48.4755 6.71197 49.0507 6.14389 50.1403 6.14389H52.0473C53.1369 6.14389 53.7121 6.71197 53.7121 7.78957V19.9115C53.7121 20.9891 53.1369 21.5571 52.0473 21.5571ZM51.9865 4.19834H50.2011C49.1114 4.19834 48.5362 3.62947 48.5362 2.55266V1.80419C48.5362 0.726583 49.1114 0.157715 50.2011 0.157715H51.9865C53.0762 0.157715 53.6514 0.726583 53.6514 1.80419V2.55266C53.6514 3.62947 53.0762 4.19834 51.9865 4.19834ZM38.9401 21.9163C36.1257 21.9163 34.9753 20.1504 34.9753 20.1504H34.9146C34.9146 20.1504 34.9753 20.6892 34.9753 21.4677V25.8968C34.9753 26.9744 34.4001 27.5433 33.3105 27.5433H31.4036C30.3147 27.5433 29.7395 26.9744 29.7395 25.8968V7.78957C29.7395 6.71197 30.3147 6.14389 31.4036 6.14389H32.7665C33.8553 6.14389 34.4305 6.71197 34.4305 7.4905V7.81964C34.4305 7.96917 34.4001 8.1195 34.4001 8.1195H34.4609C34.4609 8.1195 35.8837 5.78469 39.1822 5.78469C43.4202 5.78469 46.2043 9.07685 46.2043 13.8659C46.2043 18.7444 43.0871 21.9163 38.9401 21.9163ZM37.8808 10.1545C36.307 10.1545 34.8244 11.2914 34.8244 13.9553C34.8244 15.8107 35.8229 17.6368 37.8808 17.6368C39.5153 17.6368 40.9381 16.3194 40.9381 13.9553C40.9381 11.6506 39.6967 10.1545 37.8808 10.1545ZM22.0799 23.2036C20.7794 26.6453 18.0552 27.8424 15.5731 27.8424C14.7559 27.8424 13.9993 27.6628 13.3938 27.4539C12.3952 27.124 12.1531 26.256 12.5765 25.2987L12.9704 24.4308C13.3938 23.5027 14.0297 23.3532 14.6656 23.4726C14.9077 23.5328 15.2104 23.6229 15.5731 23.6229C16.5118 23.6229 17.3594 22.8745 17.7221 21.9757L18.0249 21.2581L12.2442 8.05937C11.7298 6.92163 12.2442 6.14389 13.5152 6.14389H15.8759C16.8745 6.14389 17.48 6.5925 17.7828 7.4905L19.629 13.2369C19.9014 14.0756 20.2042 15.6311 20.2042 15.6311H20.2641C20.2641 15.6311 20.5668 14.165 20.7794 13.3263L22.3531 7.55063C22.6256 6.5925 23.2303 6.14389 24.2297 6.14389H26.4386C27.6497 6.14389 28.1945 6.89236 27.7703 8.0293L22.0799 23.2036ZM9.15658 21.7075C6.85581 21.7075 2.58825 20.6599 2.58825 16.0805V10.4535H2.13367C1.07437 10.4535 0.5 9.88465 0.5 8.80784V8.05937C0.5 6.98176 1.07437 6.41289 2.16403 6.41289H2.73922V3.62947C2.73922 2.55266 3.31441 1.98379 4.40408 1.98379H6.16001C7.24885 1.98379 7.82404 2.55266 7.82404 3.62947V6.41289H9.42899C10.5178 6.41289 11.093 6.98176 11.093 8.05937V8.80784C11.093 9.88465 10.5178 10.4535 9.45853 10.4535H7.82404V15.1224C7.82404 16.4397 8.702 16.9484 9.64069 17.0679C10.851 17.2174 11.3047 17.5766 11.3047 18.7136V20.061C11.3047 21.2881 10.5482 21.7075 9.15658 21.7075Z" />
	</symbol>

	<symbol id="logo-typing-collapsed" viewBox="0 0 32 32">
		<path fill-rule="evenodd" clip-rule="evenodd" d="M18.2248 24.2215C16.3067 24.2215 12.749 23.3482 12.749 19.5304V14.8394H12.3701C11.4869 14.8394 11.0081 14.3652 11.0081 13.4675V12.8435C11.0081 11.9452 11.4869 11.4709 12.3954 11.4709H12.8749V9.15048C12.8749 8.25278 13.3544 7.77853 14.2628 7.77853H15.7267C16.6344 7.77853 17.1139 8.25278 17.1139 9.15048V11.4709H18.4519C19.3596 11.4709 19.8391 11.9452 19.8391 12.8435V13.4675C19.8391 14.3652 19.3596 14.8394 18.4765 14.8394H17.1139V18.7317C17.1139 19.8299 17.8458 20.254 18.6284 20.3536C19.6373 20.4783 20.0156 20.7777 20.0156 21.7256V22.8488C20.0156 23.8719 19.3849 24.2215 18.2248 24.2215Z"/>
	</symbol>

	<symbol id="logo-edutec" viewBox="0 0 149 28">
		<path d="M15.2785 27.61H0.381592V0.38999H15.2785V2.10587H2.25346V12.4791H14.4986V14.195H2.25346V25.8942H15.2005V27.61H15.2785Z"/>
		<path d="M44.0585 13.727C44.0585 18.3287 42.8886 21.7605 40.4708 24.1003C38.0529 26.4401 34.5432 27.61 29.9415 27.61H23.39V0.38999H30.7215C35.0892 0.38999 38.3649 1.55991 40.6268 3.82175C42.8886 6.08358 44.0585 9.35935 44.0585 13.727ZM41.9527 13.805C41.9527 9.90531 40.9387 6.94152 38.9889 4.99166C37.039 3.0418 34.0752 2.10587 30.2535 2.10587H25.2619V25.9722H29.7855C37.897 25.9722 41.9527 21.9165 41.9527 13.805Z"/>
		<path d="M72.2145 0.38999V18.0167C72.2145 21.1365 71.2785 23.6323 69.4846 25.3482C67.6908 27.1421 65.117 28 61.9192 28C58.7994 28 56.3036 27.1421 54.5097 25.3482C52.7938 23.5543 51.8579 21.1365 51.8579 17.9387V0.38999H53.8078V18.0167C53.8078 20.6685 54.5097 22.6964 55.9916 24.1003C57.4735 25.5822 59.5014 26.2841 62.1532 26.2841C64.727 26.2841 66.7548 25.5822 68.1587 24.1003C69.5626 22.6964 70.2646 20.6685 70.2646 18.0947V0.38999H72.2145Z"/>
		<path d="M85.3175 27.61V6.39556H78.688V0.38999H99.3565V6.39556H92.727V27.61H85.3175Z"/>
		<path d="M121.273 27.61H105.128V0.38999H121.273V6.31757H112.46V10.6073H120.649V16.5348H112.46V21.6825H121.273V27.61Z"/>
		<path d="M140.07 6.00557C138.354 6.00557 136.95 6.70752 135.936 8.18941C134.922 9.59331 134.454 11.6212 134.454 14.117C134.454 19.3426 136.482 21.9944 140.46 21.9944C141.63 21.9944 142.799 21.8384 143.969 21.5265C145.061 21.2145 146.231 20.8245 147.401 20.2786V26.5181C145.139 27.532 142.565 28 139.68 28C135.546 28 132.426 26.8301 130.242 24.4123C128.058 21.9944 126.967 18.5627 126.967 14.039C126.967 11.2312 127.513 8.73538 128.526 6.62953C129.618 4.52368 131.1 2.88579 133.128 1.71588C135.156 0.545961 137.496 0 140.148 0C143.111 0 145.919 0.623955 148.571 1.94986L146.309 7.72145C145.295 7.25348 144.281 6.86351 143.267 6.55153C142.253 6.16156 141.24 6.00557 140.07 6.00557Z"/>
	</symbol>

	<symbol id="logo-edutec-collapsed" viewBox="0 0 32 32">
		<path d="M12.1302 23.4279H4V8.57214H12.1302V9.50861H5.0216V15.17H11.7046V16.1064H5.0216V22.4914H12.0877V23.4279H12.1302Z"/>
		<path d="M20.338 23.4279V11.8498H16.7198V8.57214H28V11.8498H24.3818V23.4279H20.338Z"/>
	</symbol>

	<symbol id="menu" viewBox="0 0 24 24" fill="none">
		<path d="M22.56 3.75V3.72131H1.44V3.75" stroke-linecap="round" stroke-linejoin="round"/>
		<path d="M1.44 12H22.56" stroke-linecap="round" stroke-linejoin="round"/>
		<path d="M1.44 20.2787V20.25H22.56V20.2787" stroke-linecap="round" stroke-linejoin="round"/>
	</symbol>

	<symbol id="move-student" viewBox="0 0 24 24" fill="none">
		<path d="M17.04 22.56H1.20001C1.20001 18.4897 3.94155 14.64 9.12001 14.64C14.2985 14.64 17.04 18.4897 17.04 22.56Z" stroke-linecap="round" stroke-linejoin="round"/>
		<path d="M13.5165 7.03493L13.52 5.52506C13.4388 3.40097 11.9145 1.43999 9.11653 1.44C6.31853 1.44 4.8011 3.40097 4.71995 5.52506L4.72339 7.03493C4.80454 9.15902 6.32196 11.12 9.11996 11.12C11.918 11.12 13.4354 9.15902 13.5165 7.03493Z" stroke-linecap="round" stroke-linejoin="round"/>
		<path d="M15.6 12H23.64M23.64 12L19.8535 8.13464M23.64 12L19.8535 15.8654" stroke-linecap="round" stroke-linejoin="round"/>
	</symbol>

	<symbol id="notification" viewBox="0 0 24 24" fill="none">
    <path d="M11.9146 4.13214C8.79914 4.13214 6.27353 7.01099 6.27353 10.6093V13.2623C6.27353 14.0895 5.73422 14.8223 4.94548 15.0716C4.16049 15.3198 3.62375 16.0491 3.62375 16.8723C3.62375 17.9148 4.46881 18.7598 5.51124 18.7598H18.5034C19.5378 18.7598 20.3763 17.9213 20.3763 16.887C20.3763 16.058 19.8313 15.3276 19.0366 15.0916L18.966 15.0706C18.1295 14.8222 17.5557 14.0533 17.5557 13.1807V10.6029C17.5557 7.00462 15.0301 4.13214 11.9146 4.13214Z" stroke-linecap="round" stroke-linejoin="round"/>
    <path d="M12 22.56C13.696 22.56 15.0708 21.2233 15.0708 19.5743C15.0708 19.2888 15.0296 19.0125 14.9526 18.751H9.04748C8.97047 19.0125 8.92923 19.2888 8.92923 19.5743C8.92923 21.2233 10.3041 22.56 12 22.56Z"/>
    <path d="M13.857 4.06128L13.857 3.24557C13.857 2.24839 13.0256 1.44002 12 1.44002C10.9744 1.44002 10.143 2.24839 10.143 3.24557L10.143 4.06128"/>
	</symbol>

  <symbol id="other_lg" viewBox="0 0 160 160" fill="none">
		<path d="M75.7748 16.2764C77.1047 12.1834 82.8953 12.1834 84.2252 16.2764L97.7043 57.7609C98.299 59.5914 100.005 60.8307 101.929 60.8307H145.549C149.853 60.8307 151.642 66.3378 148.16 68.8674L112.871 94.5063C111.314 95.6376 110.663 97.6428 111.257 99.4733L124.737 140.958C126.066 145.051 121.382 148.454 117.9 145.925L82.6113 120.286C81.0542 119.155 78.9458 119.155 77.3887 120.286L42.0999 145.925C38.6181 148.454 33.9335 145.051 35.2634 140.958L48.7425 99.4733C49.3373 97.6428 48.6857 95.6376 47.1287 94.5063L11.8398 68.8674C8.35809 66.3378 10.1475 60.8307 14.4511 60.8307H58.0705C59.9952 60.8307 61.7009 59.5914 62.2957 57.7609L75.7748 16.2764Z" stroke-linecap="round" stroke-linejoin="round"/>
  </symbol>

	<symbol id="pay" viewBox="0 0 24 24" fill="none">
		<path d="M1.44 6.72001C1.44 5.39452 2.51452 4.32001 3.84 4.32001H20.16C21.4855 4.32001 22.56 5.39452 22.56 6.72001V17.28C22.56 18.6055 21.4855 19.68 20.16 19.68H3.84C2.51452 19.68 1.44 18.6055 1.44 17.28V6.72001Z" stroke-linecap="round" stroke-linejoin="round"/>
		<rect x="1.44" y="8.09259" width="21.12" height="2.96421" stroke-linecap="round" stroke-linejoin="round"/>
		<path d="M4.51447 15.9074H7.5889M13.3367 15.9074H10.2623" stroke-linecap="round" stroke-linejoin="round"/>
	</symbol>

	<symbol id="phone" viewBox="0 0 24 24">
		<path d="M19 14V18H17V14H19ZM7 14V18H6C5.45 18 5 17.55 5 17V14H7ZM12 1C7.03 1 3 5.03 3 10V17C3 18.66 4.34 20 6 20H9V12H5V10C5 6.13 8.13 3 12 3C15.87 3 19 6.13 19 10V12H15V20H19V21H12V23H18C19.66 23 21 21.66 21 20V10C21 5.03 16.97 1 12 1Z"/>
	</symbol>

	<symbol id="print" viewBox="0 0 24 24" fill="none">
		<path d="M17.8651 17.0107H22.56V5.49066H1.44V17.0107H6.24" stroke-linecap="round" stroke-linejoin="round"/>
		<path d="M6.23999 1.38269H17.76V5.49067H6.23999V1.38269Z" stroke-linecap="round" stroke-linejoin="round"/>
		<path d="M14.64 15.0826H9.35999M14.64 18.9226H9.35999M17.76 11.0974H6.23999V22.6174H17.76V16.8574V11.0974Z" stroke-linecap="round" stroke-linejoin="round"/>
	</symbol>

	<symbol id="purchase_order" viewBox="0 0 160 160" fill="none">
		<path d="M98.1714 63.5632L80.2403 72.5287L72.022 104.655L80.2403 121.839H18.2289M32.4243 52.3563V25C32.4243 19.4772 36.9014 15 42.4243 15H111.62M111.62 15V40.4023H137.022M111.62 15L137.022 40.4023M137.022 40.4023V126.034C137.022 131.557 132.545 136.034 127.022 136.034H89.953M36.907 137.529C36.907 141.655 33.562 145 29.4358 145C25.3095 145 21.9645 141.655 21.9645 137.529C21.9645 133.402 25.3095 130.057 29.4358 130.057C33.562 130.057 36.907 133.402 36.907 137.529ZM71.2748 137.529C71.2748 141.655 67.9298 145 63.8036 145C59.6773 145 56.3323 141.655 56.3323 137.529C56.3323 133.402 59.6773 130.057 63.8036 130.057C67.9298 130.057 71.2748 133.402 71.2748 137.529ZM66.7921 72.5287L59.3208 104.655L18.2289 97.1839L13.7461 72.5287H66.7921Z" stroke-linecap="round" stroke-linejoin="round"/>
	</symbol>

	<symbol id="reports" viewBox="0 0 24 24" fill="none">
		<path d="M22.1033 19.5775L3.89676 19.5775C2.79219 19.5775 1.89676 18.682 1.89676 17.5775L1.89675 4.42257" stroke-linecap="round" stroke-linejoin="round"/>
		<path d="M5.98755 13.472V15.9767M10.6735 10.9673V15.9767M15.3594 8.46257V15.9767M19.9875 5.10175V15.9767" stroke-linecap="round" stroke-linejoin="round"/>
	</symbol>

	<symbol id="refresh" viewBox="0 0 24 24" fill="none">
		<path d="M17.7214 5.95758C14.578 2.81411 9.48138 2.81411 6.33791 5.95758C4.21706 8.07843 3.52711 11.0883 4.26807 13.7876M4.26807 13.7876L7.11284 10.9429M4.26807 13.7876L1.38797 10.9075" stroke-linecap="round" stroke-linejoin="round"/>
		<path d="M6.27859 18.0423C9.42207 21.1858 14.5186 21.1858 17.6621 18.0423C19.783 15.9215 20.4729 12.9116 19.732 10.2123M19.732 10.2123L16.8872 13.057M19.732 10.2123L22.6121 13.0924" stroke-linecap="round" stroke-linejoin="round"/>
	</symbol>

	<symbol id="reset" viewBox="0 0 24 24" fill="none">
		<path d="M16.9196 20.6534C18.103 20.2307 19.2138 19.5456 20.1614 18.5979C23.5824 15.1769 23.5824 9.63041 20.1614 6.20942C16.7405 2.78843 11.1939 2.78843 7.77293 6.20942C5.46484 8.51751 4.71398 11.7931 5.52035 14.7307M5.52035 14.7307L8.61627 11.6348M5.52035 14.7307L2.38599 11.5964" stroke-linecap="round" stroke-linejoin="round"/>
	</symbol>

	<symbol id="ribbon-end" viewBox="0 0 12 24">
		<path d="M0 0H12L0 12L12 24H0V0Z"/>
	</symbol>

	<symbol id="save" viewBox="0 0 24 24" fill="none">
		<path d="M5.82068 1.44H3.36C2.29962 1.44 1.44 2.29962 1.44 3.36V20.64C1.44 21.7004 2.29962 22.56 3.36 22.56H5.82068M5.82068 1.44V4.8C5.82068 5.86039 6.68029 6.72 7.74068 6.72H12.4657C13.5261 6.72 14.3857 5.86039 14.3857 4.8V1.44M5.82068 1.44H14.3857M5.82068 22.56H17.9923M5.82068 22.56V16.56C5.82068 15.4996 6.68029 14.64 7.74068 14.64H16.0723C17.1326 14.64 17.9923 15.4996 17.9923 16.56V22.56M14.3857 1.44H16.6346C17.1438 1.44 17.6322 1.64229 17.9923 2.00236L21.9976 6.00775C22.3577 6.36782 22.56 6.85618 22.56 7.3654V20.64C22.56 21.7004 21.7004 22.56 20.64 22.56H17.9923M8.3893 17.34H15.4608M8.3893 19.86H15.4608" stroke-linecap="round" stroke-linejoin="round"/>
	</symbol>

	<symbol id="search" viewBox="0 0 24 24" fill="none">
    <path d="M19.3428 10.35C19.3428 15.2709 15.3537 19.26 10.4328 19.26C5.51197 19.26 1.52283 15.2709 1.52283 10.35C1.52283 5.42915 5.51197 1.44 10.4328 1.44C15.3537 1.44 19.3428 5.42915 19.3428 10.35Z" stroke-linecap="round" stroke-linejoin="round"/>
    <path d="M22.4772 22.56L16.71 16.7928" stroke-linecap="round" stroke-linejoin="round"/>
	</symbol>

	<symbol id="settings" viewBox="0 0 24 24" fill="none">
		<path fill-rule="evenodd" clip-rule="evenodd" d="M19.3549 4.81747C19.5603 4.63997 19.8825 4.61307 20.0711 4.80708C21.2198 5.98924 22.0525 7.39439 22.5349 8.90007C22.616 9.15343 22.4309 9.40733 22.1678 9.48928C21.0633 9.83326 20.265 10.8273 20.265 12C20.265 13.1734 21.0643 14.1679 22.1697 14.5113C22.4332 14.5932 22.6186 14.8473 22.5371 15.1009C22.2976 15.8453 21.9678 16.5759 21.5439 17.2791C21.12 17.9824 20.6244 18.6213 20.0711 19.1922C19.8827 19.3866 19.5601 19.3598 19.3544 19.1822C18.4912 18.4369 17.1924 18.2711 16.1316 18.8578C15.0714 19.4441 14.5719 20.6034 14.8131 21.6916C14.8705 21.9508 14.7336 22.2314 14.4639 22.2907C12.8614 22.6434 11.1746 22.6552 9.53146 22.2933C9.2618 22.2339 9.12503 21.9532 9.18276 21.694C9.42525 20.6051 8.92573 19.4445 7.86475 18.8578C6.80379 18.271 5.50479 18.4369 4.64158 19.1825C4.43609 19.36 4.11391 19.3869 3.92539 19.1929C2.77668 18.0107 1.944 16.6055 1.46162 15.0999C1.38045 14.8465 1.56558 14.5926 1.82867 14.5107C2.93303 14.1666 3.73127 13.1726 3.73127 12C3.73127 10.8267 2.93209 9.8322 1.82672 9.48873C1.5633 9.40688 1.37787 9.15273 1.45942 8.89922C1.69891 8.15472 2.02873 7.42416 2.45262 6.72088C2.87647 6.01766 3.37202 5.37881 3.92533 4.80791C4.11375 4.6135 4.43626 4.64025 4.64197 4.81786C5.50519 5.56316 6.80395 5.72891 7.86476 5.14224C8.92496 4.55591 9.42452 3.39663 9.1833 2.30843C9.12583 2.04919 9.26281 1.76865 9.53245 1.70931C11.135 1.35662 12.8217 1.3448 14.4649 1.70667C14.7346 1.76605 14.8713 2.04677 14.8136 2.30599C14.5711 3.39489 15.0706 4.55548 16.1316 5.14225C17.1926 5.72902 18.4916 5.56311 19.3549 4.81747Z"/>
		<path d="M15.5177 11.9982C15.5177 13.942 13.942 15.5177 11.9982 15.5177C10.0545 15.5177 8.47883 13.942 8.47883 11.9982C8.47883 10.0545 10.0545 8.47883 11.9982 8.47883C13.942 8.47883 15.5177 10.0545 15.5177 11.9982Z"/>
	</symbol>

	<symbol id="settings-indicator" viewBox="0 0 25 25" stroke="none">
		<path fill-rule="evenodd" clip-rule="evenodd" d="M12.4951 24.3796C19.1225 24.3796 24.4951 19.0071 24.4951 12.3796C24.4951 5.75222 19.1225 0.379639 12.4951 0.379639C5.8677 0.379639 0.495117 5.75222 0.495117 12.3796C0.495117 19.0071 5.8677 24.3796 12.4951 24.3796ZM12.5064 21.0613C13.6047 21.0613 14.4951 20.1709 14.4951 19.0725C14.4951 17.9742 13.6047 17.0838 12.5064 17.0838H12.4838C11.3854 17.0838 10.4951 17.9742 10.4951 19.0725C10.4951 20.1709 11.3854 21.0613 12.4838 21.0613H12.5064ZM10.5176 13.1176C10.5176 14.2159 11.408 15.1063 12.5064 15.1063C13.6047 15.1063 14.4951 14.2159 14.4951 13.1176L14.4951 5.68673C14.4951 4.58839 13.6047 3.69801 12.5064 3.69801C11.408 3.69801 10.5176 4.58839 10.5176 5.68673L10.5176 13.1176Z"/>
	</symbol>

  <symbol id="school" viewBox="0 0 24 24" fill="none">
		<path d="M11.75 6.54688L7.75 9.48438V13.4531L4.375 15.4844V22.4844H9.71875M11.75 6.54688V4.51562M11.75 6.54688L15.7188 9.48438V13.4531L19.625 15.4844V22.4844H13.7188M11.75 4.51562V1.51562H16.6875V4.51562H11.75ZM9.71875 22.4844V16.4844H13.7188V22.4844M9.71875 22.4844H13.7188M10.7188 11.7656H12.7188" stroke-linecap="round" stroke-linejoin="round"/>
  </symbol>

  <symbol id="school_lg" viewBox="0 0 160 160" fill="none">
		<path d="M80 64.125V73.925H85.6M95.4 73.925C95.4 82.4302 88.5052 89.325 80 89.325C71.4948 89.325 64.6 82.4302 64.6 73.925C64.6 65.4198 71.4948 58.525 80 58.525C88.5052 58.525 95.4 65.4198 95.4 73.925Z" stroke-linecap="round" stroke-linejoin="round"/>
		<path d="M45.5 67.875H9.25V68M45.5 67.875V142.625M45.5 67.875L62.75 53M45.5 142.625H9.25V68M45.5 142.625H65.5M65.5 142.625V101.125H80H94.5V142.625M65.5 142.625H94.5M80 38.125L62.75 53M80 38.125L97.25 53M80 38.125V27.75M62.75 53H21L9.25 68M18.75 88.625H35.75M18.75 105.125H35.75M18.75 121.625H35.75M150.652 67.875H150.75V68M150.652 67.875H114.5M150.652 67.875L139 53H97.25M150.652 67.875L150.75 68M114.5 67.875V142.625M114.5 67.875L97.25 53M114.5 142.625H150.75V68M114.5 142.625H94.5M141.25 88.625H124.25M141.25 105.125H124.25M141.25 121.625H124.25M80 27.75V17.375H97.25V27.75H80Z" stroke-linecap="round" stroke-linejoin="round"/>
  </symbol>

	<symbol id="student" viewBox="0 0 24 24" fill="none">
		<path d="M1.44 7.58263L12 12.3135L22.56 7.58263L12 2.85175L1.44 7.58263ZM1.44 7.58263V14.8197" stroke-linecap="round" stroke-linejoin="round"/>
		<path d="M7.49715 10.8069C6.91949 11.6791 6.60466 12.713 6.56396 13.7781L6.56849 15.767C6.67539 18.5651 8.67427 21.1483 12.3601 21.1483C16.0458 21.1483 18.0447 18.5651 18.1516 15.767L18.1561 13.7781C18.1154 12.713 17.7993 11.6791 17.22 10.8069" stroke-linecap="round" stroke-linejoin="round"/>
	</symbol>

	<symbol id="support" viewBox="0 0 24 24" fill="none">
    <circle cx="12" cy="12" r="10.56"/>
    <path d="M10.3409 7.68064C11.7873 6.64866 14.4689 7.20122 14.4689 9.13517C14.4689 11.5079 11.8361 11.4673 11.8361 13.9213M11.6248 16.9319V17.3707H12.088V16.9319H11.6248Z" stroke-linecap="round" stroke-linejoin="round"/>
	</symbol>

	<symbol id="teacher" viewBox="0 0 24 24" fill="none">
		<path d="M16.4 4.96002H20.8C21.772 4.96002 22.56 5.748 22.56 6.72002V17.28C22.56 18.252 21.772 19.04 20.8 19.04H19.48M1.44 15.52V6.72002C1.44 6.06857 1.79394 5.49979 2.32 5.19548" stroke-linecap="round" stroke-linejoin="round"/>
		<path d="M15.52 10.24H19.92M15.52 13.76H19.92" stroke-linecap="round" stroke-linejoin="round"/>
		<path d="M17.28 22.56H1.44C1.44 18.4897 4.18154 14.64 9.36 14.64C14.5385 14.64 17.28 18.4897 17.28 22.56Z" stroke-linecap="round" stroke-linejoin="round"/>
		<path d="M13.7566 7.03493L13.76 5.52506C13.6789 3.40097 12.1546 1.44 9.35658 1.44C6.55858 1.44 5.04116 3.40097 4.96001 5.52506L4.96344 7.03493C5.04459 9.15902 6.56201 11.12 9.36001 11.12C12.158 11.12 13.6754 9.15902 13.7566 7.03493Z" stroke-linecap="round" stroke-linejoin="round"/>
	</symbol>

	<symbol id="timer" viewBox="0 0 24 24" fill="none">
		<path d="M12 4.82935C7.18546 4.82935 3.2825 8.7323 3.2825 13.5468C3.2825 18.3614 7.18546 22.2643 12 22.2643C16.8145 22.2643 20.7175 18.3614 20.7175 13.5468C20.7175 11.3412 19.8984 9.32694 18.5478 7.79156M12 4.82935V1.7356H8.09375H15.9688M12 4.82935C14.6089 4.82935 16.9502 5.97541 18.5478 7.79156M12.3963 8.3956V13.9431H6.84875M18.5478 7.79156L19.7962 6.54312" stroke-linecap="round" stroke-linejoin="round"/>
	</symbol>

  <symbol id="teacher_lg" viewBox="0 0 160 160" fill="none">
		<path d="M38.5573 26.3628H138.856V93.2285H46.2189" stroke-linecap="round" stroke-linejoin="round"/>
		<path d="M20.4478 67.4573V93.2285M33.6816 128.751H23.4478C21.7909 128.751 20.4478 127.408 20.4478 125.751V93.2285M33.6816 128.751V93.2285M33.6816 128.751H43.2189C44.8758 128.751 46.2189 127.408 46.2189 125.751V67.5817C46.2189 64.8203 48.4575 62.5817 51.2189 62.5817H77.2139C80.099 62.5817 82.4378 60.2429 82.4378 57.3578V57.3578C82.4378 54.4728 80.099 52.1339 77.2139 52.1339H45.3157C44.5535 52.1339 43.8199 52.424 43.2639 52.9453L35.1786 60.5253C33.9679 61.6603 32.0658 61.5968 30.9336 60.3837L23.7864 52.726C23.4339 52.3483 22.9406 52.1339 22.424 52.1339V52.1339C15.5624 52.1339 10 57.6964 10 64.5579V82.7807C10 88.5508 14.6776 93.2285 20.4478 93.2285V93.2285" stroke-linecap="round" stroke-linejoin="round"/>
		<circle cx="32.9851" cy="36.114" r="11.1443" stroke-linecap="round" stroke-linejoin="round"/>
		<circle cx="70.597" cy="118.303" r="11.1443" stroke-linecap="round" stroke-linejoin="round"/>
		<path d="M86.8045 134.055C82.1649 131.136 76.6731 129.447 70.7869 129.447C64.9007 129.447 59.4089 131.136 54.7693 134.055" stroke-linecap="round" stroke-linejoin="round"/>
		<path d="M118.84 134.055C114.2 131.136 108.708 129.447 102.822 129.447C96.936 129.447 91.4442 131.136 86.8046 134.055" stroke-linecap="round" stroke-linejoin="round"/>
		<path d="M150.875 134.055C146.235 131.136 140.744 129.447 134.857 129.447C128.971 129.447 123.479 131.136 118.84 134.055" stroke-linecap="round" stroke-linejoin="round"/>
		<circle cx="102.637" cy="118.303" r="11.1443" stroke-linecap="round" stroke-linejoin="round"/>
		<circle cx="134.677" cy="118.303" r="11.1443" stroke-linecap="round" stroke-linejoin="round"/>
  </symbol>

	<symbol id="trash" viewBox="0 0 24 24" fill="none">
		<path d="M15.7625 10.1226L15.5378 19.6517M12 10.1226L12 19.6517M8.23755 10.1226L8.46224 19.6517" stroke-linecap="round" stroke-linejoin="round"/>
		<path d="M19.218 7.21442L18.6246 20.7243C18.5795 21.7509 17.7341 22.56 16.7065 22.56L7.29362 22.56C6.266 22.56 5.42056 21.7509 5.37546 20.7243L4.78204 7.21442" stroke-linecap="round" stroke-linejoin="round"/>
		<path d="M14.6962 3.96766L14.6962 3.36C14.6962 2.29961 13.8366 1.44 12.7762 1.44L11.2238 1.44C10.1634 1.44 9.30383 2.29961 9.30383 3.36L9.30383 3.96766M4.60828 7.21486L19.3917 7.21486C20.2884 7.21486 21.0153 6.48795 21.0153 5.59126C21.0153 4.69457 20.2884 3.96766 19.3917 3.96766L4.60828 3.96766C3.71159 3.96766 2.98468 4.69457 2.98468 5.59126C2.98468 6.48795 3.71159 7.21486 4.60828 7.21486Z" stroke-linecap="round" stroke-linejoin="round"/>
	</symbol>

	<symbol id="triangle" viewBox="0 0 25 13">
    <path d="M0.529541 12.5295L12.5295 0.529541L24.5295 12.5295H0.529541Z"/>
	</symbol>

 <symbol id="typing_assessments-lg" viewBox="0 0 160 160" fill="none">
		<path d="M45.6345 84.3126C47.2108 84.9795 48.7308 85.6993 49.8097 86.7702C52.9989 89.9356 52.2823 94.9682 56.4225 97.3407C60.5728 99.719 64.5943 96.579 68.9518 97.7379C70.7227 98.2089 72.0893 99.2683 73.4093 100.36M45.6345 84.3126C43.077 83.2305 40.3715 82.2875 39.1626 80.2092C37.2162 76.8631 39.7997 71.6154 38.7624 67.773C37.6055 63.4877 32.843 61.598 32.843 56.8057C32.843 54.054 36.4295 50.1601 36.4295 50.1601C38.4159 47.3491 39.6333 44.3551 38.9076 40.8831C38.9134 40.8682 38.9191 40.8534 38.9249 40.8386C37.7879 38.5574 37.7845 35.7726 39.1627 33.4032C41.23 29.8494 46.9278 29.7019 49.8103 26.8408C52.9998 23.6751 52.279 18.6439 56.4202 16.2708C60.5707 13.8924 64.5925 17.0327 68.9503 15.8737C73.3046 14.7157 75.218 10 79.9997 10C84.7816 10 86.6929 14.7154 91.047 15.8734C95.4051 17.0324 99.4292 13.8929 103.58 16.2713C107.721 18.6443 107.001 23.6763 110.191 26.842C113.385 30.0125 118.44 29.2738 120.841 33.4029C123.239 37.5242 120.069 41.5069 121.239 45.8383C122.409 50.1718 127.157 52.0378 127.157 56.8057C127.157 61.5754 122.406 63.4383 121.236 67.773C120.066 72.1059 123.24 76.0865 120.842 80.2097C119.612 82.3235 117.688 83.1612 115.674 83.9005M45.6345 84.3126L41.8797 143.833L56.3862 132.019L69.3656 146.021L73.4093 100.36M73.4093 100.36C75.3352 101.952 77.1618 103.613 79.9997 103.613C83.5334 103.613 86.0355 101.183 88.8125 99.3665M88.8125 99.3665C90.9165 97.9901 93.1783 96.9656 96.166 97.6167C98.4492 98.7065 101.218 98.6943 103.577 97.3421C107.718 94.9692 107.002 89.935 110.191 86.769C111.751 85.2213 113.753 84.6056 115.674 83.9005M88.8125 99.3665L93.7909 129.301L107.194 115.173L122.174 127.093L115.674 83.9005"/>
		<ellipse cx="80.6368" cy="56.7625" rx="31.0576" ry="30.8613"/>
		<path d="M80.7579 41.8243L84.5811 53.2376H96.9531L86.944 60.2915L90.7671 71.7048L80.7579 64.651L70.7488 71.7048L74.5719 60.2915L64.5627 53.2376H76.9348L80.7579 41.8243Z" stroke-linejoin="round"/>
  </symbol>

 <symbol id="typing_lessons-lg" viewBox="0 0 160 160" fill="none">
		<path d="M27.5 134.688H34.0625M47.1875 134.688H112.812M125.937 134.688H132.5M27.5 121.563H36.25M47.1875 121.563H55.9375M66.875 121.563H75.625M84.375 121.563H93.125M104.062 121.563H112.812M124.844 121.563H132.5M27.5 106.25H36.25M47.1875 106.25H55.9375M66.875 106.25H75.625M84.375 106.25H93.125M104.062 106.25H112.812M124.844 106.25H132.5M36.25 90.9376H45M55.9375 90.9376H64.6875M75.625 90.9376H84.375M93.125 90.9376H101.875M112.812 90.9376H121.562M67.0566 75.6251C68.098 69.4176 73.4967 64.6876 80.0002 64.6876M80.0002 64.6876C86.5036 64.6876 91.9023 69.4176 92.9437 75.6251M80.0002 64.6876L80 63.7501C80 58.2272 84.4771 53.7501 90 53.7501H129.219C133.447 53.7501 136.875 50.3222 136.875 46.0938C136.875 41.8654 133.447 38.4376 129.219 38.4376H30.7812C26.5528 38.4376 23.125 35.0097 23.125 30.7813C23.125 26.5529 26.5528 23.1251 30.7812 23.1251H70C75.5228 23.1251 80 18.6479 80 13.1251V12.1876M16.375 150H143.625C144.73 150 145.625 149.105 145.625 148V77.6251C145.625 76.5205 144.73 75.6251 143.625 75.6251H16.375C15.2704 75.6251 14.375 76.5205 14.375 77.6251V148C14.375 149.105 15.2704 150 16.375 150Z" stroke-linecap="round" stroke-linejoin="round"/>
  </symbol>

	<symbol id="unlink" viewBox="0 0 24 24" fill="none">
    <path d="M7.64559 10.0117L5.98282 10.9717L4.32005 11.9317C1.56508 13.5223 0.621162 17.045 2.21174 19.8C3.80232 22.555 7.32508 23.4989 10.08 21.9083L11.7428 20.9483M16.8001 19.9883L17.2801 23.4M19.8684 16.74L23.4001 17.28M19.2601 19.08L21.7884 21.6083M10.8517 5.95724L11.8117 4.29448C13.4023 1.53951 16.9251 0.595589 19.68 2.18617C22.435 3.77675 23.3789 7.29951 21.7884 10.0545L19.8684 13.29" stroke-linecap="round" stroke-linejoin="round"/>
	</symbol>

	<symbol id="user" viewBox="0 0 24 24" fill="none">
    <path d="M19.92 22.56H4.08002C4.08002 18.4896 6.82156 14.64 12 14.64C17.1785 14.64 19.92 18.4896 19.92 22.56Z" stroke-linecap="round" stroke-linejoin="round"/>
    <path d="M16.3965 7.0349L16.4 5.52503C16.3188 3.40094 14.7945 1.43996 11.9965 1.43996C9.19853 1.43996 7.68111 3.40094 7.59996 5.52503L7.60339 7.0349C7.68454 9.15899 9.20197 11.12 12 11.12C14.798 11.12 16.3154 9.15899 16.3965 7.0349Z" stroke-linecap="round" stroke-linejoin="round"/>
	</symbol>

	<symbol id="written_prompt-lg" viewBox="0 0 160 160" fill="none">
		<path d="M105.166 81.9813V133.829C105.166 136.038 103.375 137.829 101.166 137.829H26.5C24.2909 137.829 22.5 136.038 22.5 133.829L22.5 26.1707C22.5 23.9616 24.2909 22.1707 26.5 22.1707L101.166 22.1707C103.375 22.1707 105.166 23.9616 105.166 26.1707V44.0937M35.0594 35.5675H92.6065M35.0594 48.1269H92.6065M35.0594 60.6863H90.9319M35.0594 73.2457H81.5124M35.0594 85.8051H74.3954M35.0594 98.3645H56.3936M92.6065 98.3645H81.5124M35.0594 110.924H46.7647M92.6065 110.924H72.9301M35.0594 123.483H45.2994" stroke-linecap="round" stroke-linejoin="round"/>
		<path d="M41.0879 128.814C48.3034 121.599 43.9587 117.731 47.7658 108.216C51.5729 98.7013 61.7108 98.3738 75.0214 85.0417L84.8606 94.8809C71.5286 108.192 71.2011 118.329 61.6862 122.137C52.1713 125.944 48.3034 121.599 41.0879 128.814ZM41.0879 128.814L64.796 105.106M94.1637 89.7599L78.747 74.3431C78.42 74.0161 77.8899 74.0161 77.5629 74.3431L71.5322 80.3738C71.2052 80.7008 71.2052 81.2309 71.5322 81.5579L88.3472 98.373C88.6742 98.7 89.2044 98.7 89.5313 98.373L95.562 92.3423C95.889 92.0153 95.889 91.4851 95.562 91.1582L94.1637 89.7599ZM94.1637 89.7599L80.0499 75.646M80.5793 76.1755L93.6227 89.2189C93.929 89.5253 94.4185 89.5473 94.7512 89.2697L135.093 55.6086C138.195 53.0202 138.317 48.2954 135.353 45.5505L122.663 33.801C119.808 31.1567 115.307 31.4948 112.878 34.5362L80.5171 75.061C80.251 75.3942 80.2778 75.874 80.5793 76.1755Z" stroke-linecap="round" stroke-linejoin="round"/>
	</symbol>

  <symbol id="custom_written_prompt" viewBox="0 0 24 24" fill="none">
    <path d="M19.5,10.2l-5.6-5.6l-2.2,2.2l5.6,5.6L19.5,10.2z"/>
    <path d="M18.5,9.3l-3.8-3.8c-0.3-0.4-0.3-0.4-0.3-0.4l2.3-2.9c0.3-0.3,0.9-0.3,1.2,0L21.7,6c0.3,0.3,0.3,0.9,0,1.2 l-2.9,2.4C18.9,9.6,18.9,9.6,18.5,9.3z"/>
    <path d="M16.3,11.6c-2.8,2.3-5.1,8.4-5.1,8.4l-9.2,2l2-9.3c0,0,6.1-2.2,8.4-5.1"/>
    <path d="M2,22.1l5.2-5.2"/>
    <path d="M8.1,17.5c0.8,0,1.5-0.7,1.5-1.5s-0.7-1.5-1.5-1.5c-0.8,0-1.5,0.7-1.5,1.5S7.2,17.5,8.1,17.5z"/>
  </symbol>

</svg>
